<?xml version="1.0" encoding="UTF-8"?>
<svg version="1.1" xmlns="http://www.w3.org/2000/svg" width="4500" height="3000">
<path d="M0 0 C1485 0 2970 0 4500 0 C4500 990 4500 1980 4500 3000 C3015 3000 1530 3000 0 3000 C0 2010 0 1020 0 0 Z " fill="#FEFEFE" transform="translate(0,0)"/>
<path d="M0 0 C1485 0 2970 0 4500 0 C4500 330 4500 660 4500 1000 C3015 1000 1530 1000 0 1000 C0 670 0 340 0 0 Z " fill="#046A38" transform="translate(0,2000)"/>
<path d="M0 0 C1485 0 2970 0 4500 0 C4500 330 4500 660 4500 1000 C3015 1000 1530 1000 0 1000 C0 670 0 340 0 0 Z " fill="#FF671F" transform="translate(0,0)"/>
<path d="M0 0 C1.29788259 0.37861515 2.59604445 0.75627474 3.89453125 1.1328125 C7.95700761 2.34942846 11.98078347 3.64838356 16 5 C16.98145996 5.3295166 17.96291992 5.6590332 18.97412109 5.99853516 C36.77915313 12.03579762 53.98076279 19.01742874 71 27 C71.88558594 27.41185547 72.77117188 27.82371094 73.68359375 28.24804688 C106.19287679 43.48835819 136.58116744 63.89206037 164 87 C164.52239258 87.43747559 165.04478516 87.87495117 165.58300781 88.32568359 C180.92620828 101.1951844 196.25945922 114.73088227 209.2734375 129.99609375 C211.21741046 132.25233386 213.23323518 134.43363893 215.25 136.625 C220.34340588 142.27184897 224.99966587 148.22290288 229.64013672 154.24169922 C230.9297111 155.90911658 232.23039842 157.56710773 233.53515625 159.22265625 C261.44525534 194.79121595 283.46779921 235.61327769 299 278 C299.31130859 278.83515137 299.62261719 279.67030273 299.94335938 280.53076172 C312.31614102 313.83042832 320.00878923 348.74517214 324 384 C324.11714355 384.96663574 324.23428711 385.93327148 324.35498047 386.92919922 C331.66474776 448.89386846 323.6504155 514.04007016 304 573 C303.62891113 574.11987305 303.25782227 575.23974609 302.87548828 576.39355469 C285.17973544 629.23347741 257.9105252 678.37892212 222 721 C221.3517627 721.77561279 221.3517627 721.77561279 220.69042969 722.56689453 C207.64258319 738.15718611 193.82644865 753.80885714 178.32421875 767.015625 C176.4543397 768.61209316 174.60850147 770.22778363 172.76953125 771.859375 C127.61360734 811.75624866 74.36709906 841.42254242 17.3125 860.4375 C16.21032135 860.8055928 16.21032135 860.8055928 15.08587646 861.18112183 C-1.66825143 866.74680035 -18.4586138 871.36012344 -35.8125 874.625 C-36.59403442 874.77407806 -37.37556885 874.92315613 -38.18078613 875.07675171 C-66.17819228 880.41381515 -93.96534592 883.42668541 -122.5 883.375 C-123.54372772 883.37512085 -124.58745544 883.3752417 -125.66281128 883.37536621 C-146.61779693 883.34124565 -167.24042541 881.79216122 -188 879 C-189.78978271 878.75975098 -189.78978271 878.75975098 -191.61572266 878.51464844 C-265.67664192 868.12516431 -337.96671354 836.7187137 -397 791 C-397.80050781 790.38656738 -397.80050781 790.38656738 -398.6171875 789.76074219 C-419.72128495 773.58012369 -440.73487295 755.60853009 -458.015625 735.32421875 C-459.61209316 733.4543397 -461.22778363 731.60850147 -462.859375 729.76953125 C-524.86733686 659.58792175 -569.19219349 563.46560338 -572.82421875 469.13671875 C-572.92079144 466.09131819 -572.92079144 466.09131819 -573.49829102 463.51293945 C-574.20596999 458.55780913 -574.18231701 453.65598882 -574.203125 448.65625 C-574.21009399 447.54691101 -574.21706299 446.43757202 -574.22424316 445.2946167 C-574.24168387 441.69637283 -574.24797213 438.09828449 -574.25 434.5 C-574.25100708 433.27615601 -574.25201416 432.05231201 -574.25305176 430.79138184 C-574.24273744 412.31115367 -573.61807052 394.31238765 -571 376 C-570.71837442 373.83989268 -570.43712541 371.67973624 -570.15625 369.51953125 C-561.99391069 309.69698796 -540.98996827 250.2361676 -509 199 C-508.35297119 197.96335205 -508.35297119 197.96335205 -507.69287109 196.90576172 C-492.8004154 173.20506279 -475.99981955 151.08217803 -457.1640625 130.3828125 C-455.73073335 128.8045981 -454.3086322 127.21610715 -452.8984375 125.6171875 C-444.80191009 116.46075104 -436.26295858 107.5697237 -426.93359375 99.65625 C-424.69663065 97.74014423 -422.54196422 95.74487144 -420.375 93.75 C-414.72815103 88.65659412 -408.77709712 84.00033413 -402.75830078 79.35986328 C-401.09088342 78.0702889 -399.43289227 76.76960158 -397.77734375 75.46484375 C-389.44367876 68.92628093 -380.82612635 62.85475713 -372 57 C-371.28102539 56.52304688 -370.56205078 56.04609375 -369.82128906 55.5546875 C-314.58316118 19.19910487 -249.63661312 -5.88425591 -183.79345703 -13.66015625 C-181.87822645 -13.89315756 -179.9651171 -14.14409111 -178.05419922 -14.41015625 C-119.35301846 -22.56641482 -56.69846219 -17.25769678 0 0 Z " fill="#08058E" transform="translate(2374,1067)"/>
<path d="M0 0 C0.92167969 0.00902344 1.84335938 0.01804687 2.79296875 0.02734375 C3.79263672 0.04474609 3.79263672 0.04474609 4.8125 0.0625 C4.91026087 10.44687692 4.9680538 20.72442051 3.8125 31.0625 C2.9771875 31.06636719 2.9771875 31.06636719 2.125 31.0703125 C-4.38084703 31.40000069 -8.61749321 33.38909939 -13.1875 38.0625 C-17.3401948 43.67244779 -16.79682985 49.35140872 -16.1875 56.0625 C-14.50598812 61.29387029 -11.64504712 63.91599615 -7.1875 67.0625 C-5.20175003 67.77048412 -3.20294467 68.44409299 -1.1875 69.0625 C-2.53348142 79.24591204 -4.72959676 89.09963976 -7.1875 99.0625 C-17.1071382 97.4983658 -26.31283195 94.07097869 -35.75 90.75 C-45.81145813 87.22107762 -55.85623729 83.79212745 -66.10694885 80.85148621 C-73.05793091 78.84479399 -79.86778313 76.47540037 -86.6875 74.0625 C-94.30543626 71.39254806 -101.90895743 68.73213481 -109.6875 66.5625 C-118.67653104 64.05522894 -127.45421703 60.91410039 -136.24804688 57.80273438 C-142.30199038 55.67766299 -148.35576596 53.69731483 -154.52734375 51.94140625 C-162.27454133 49.72580355 -169.9071246 47.18846974 -177.54120255 44.61597824 C-179.67675385 43.89675391 -181.81319223 43.18022717 -183.94992065 42.46450806 C-196.26283661 38.33871665 -196.26283661 38.33871665 -201.68530273 36.48901367 C-219.38578848 30.45833936 -236.55349563 25.3826831 -255.1875 23.0625 C-256.86885942 22.82981626 -258.54978611 22.59398024 -260.23022461 22.35473633 C-264.85760649 21.70243548 -269.48997996 21.09526376 -274.125 20.5 C-285.87686171 18.98795469 -297.53531777 17.21839818 -309.1875 15.0625 C-309.26192057 11.19263042 -309.23452186 7.7889085 -308.1875 4.0625 C-301.58463967 3.93425004 -295.204474 4.25313214 -288.65625 5.0859375 C-287.78085571 5.19217438 -286.90546143 5.29841125 -286.00354004 5.40786743 C-283.23080575 5.74547585 -280.45915631 6.09116423 -277.6875 6.4375 C-275.86204952 6.66203106 -274.03652896 6.88599315 -272.2109375 7.109375 C-270.86672729 7.27424408 -270.86672729 7.27424408 -269.49536133 7.44244385 C-267.67382287 7.66458568 -265.85204028 7.88473405 -264.0300293 8.10296631 C-260.02162672 8.5841369 -256.02050166 9.07746136 -252.02734375 9.67285156 C-224.8726067 13.5206988 -196.55905024 10.92775725 -169.29797363 9.3248291 C-166.14286973 9.14126951 -162.98732807 8.966043 -159.8317337 8.79114914 C-143.25584327 7.87225843 -126.68677849 6.87359274 -110.12615967 5.70950317 C-102.48264097 5.18012742 -94.84495776 4.81629954 -87.1875 4.5625 C-76.59513016 4.20193853 -66.04312388 3.5431145 -55.47143555 2.79516602 C-45.72834845 2.12290247 -35.99057716 1.68988777 -26.22875977 1.40429688 C-20.32039198 1.22280011 -14.47887008 0.84947152 -8.59594727 0.27416992 C-5.72315021 0.02168994 -2.88296827 -0.03744115 0 0 Z " fill="#FCFCFD" transform="translate(2636.1875,1500.9375)"/>
<path d="M0 0 C2.47273212 2.94557967 3.55801692 5.31904193 4.38671875 9.0625 C4.60263672 10.02414062 4.81855469 10.98578125 5.04101562 11.9765625 C5.25435547 12.97429687 5.46769531 13.97203125 5.6875 15 C5.91244141 15.99773437 6.13738281 16.99546875 6.36914062 18.0234375 C7.27959342 22.15229943 8 25.75031096 8 30 C6.80375 30.350625 5.6075 30.70125 4.375 31.0625 C-1.00193189 33.04900414 -4.45862071 36.91724142 -7 42 C-7.65356434 49.66063115 -7.96608823 55.8878914 -3 62 C1.78945387 66.73982222 6.37240297 67.83468579 13 68 C14.32378398 78.30660383 14.09139066 88.63223764 14 99 C12.39594109 99.02792366 10.79172506 99.0467943 9.1875 99.0625 C7.84751953 99.07990234 7.84751953 99.07990234 6.48046875 99.09765625 C3.59765252 99.01676915 0.80523463 98.80723676 -2.06152344 98.52514648 C-7.53759643 98.01720967 -13.00183189 97.71886393 -18.49609375 97.5 C-19.92829002 97.4390918 -19.92829002 97.4390918 -21.38941956 97.37695312 C-24.40534732 97.24879341 -27.42139796 97.12398589 -30.4375 97 C-52.75448454 96.08097031 -52.75448454 96.08097031 -61.82543945 95.24560547 C-68.86695788 94.70082599 -75.93139051 94.48098886 -82.98693848 94.18460083 C-96.41812166 93.61676022 -109.84029783 93.02061955 -123.25 92.0625 C-192.7142671 87.17468343 -192.7142671 87.17468343 -262.01074219 91.73712158 C-266.28381636 92.30180403 -270.56139793 92.8300824 -274.83959961 93.35424805 C-276.89867008 93.60708899 -278.95689644 93.86696921 -281.01391602 94.13598633 C-287.04218171 94.89383455 -292.92586471 95.14804934 -299 95 C-300.04702186 91.2735915 -300.07442057 87.86986958 -300 84 C-285.90567733 81.55669406 -271.83286448 79.12602633 -257.625 77.4375 C-254.75159547 77.0847734 -251.87860927 76.7290284 -249.00604248 76.36953735 C-247.15898728 76.14247606 -245.31087435 75.92361549 -243.46124268 75.71859741 C-222.9757536 73.38737311 -203.90890958 66.49690785 -184.48840332 59.90588379 C-180.01395396 58.39113133 -175.53321998 56.8952216 -171.05273438 55.3984375 C-166.00032363 53.71027051 -160.94843005 52.0208327 -155.90205383 50.31469727 C-148.22125382 47.720586 -140.53092047 45.20172953 -132.77226257 42.84716797 C-129.14883039 41.73989346 -125.55979313 40.55203924 -121.96875 39.34375 C-121.28550659 39.11473999 -120.60226318 38.88572998 -119.89831543 38.64978027 C-117.7650306 37.93470388 -115.63242431 37.21763811 -113.5 36.5 C-104.81051446 33.57567302 -96.11842252 30.7081396 -87.34570312 28.04101562 C-80.6944394 25.97147472 -74.10166721 23.72170041 -67.5 21.5 C-58.78674931 18.56767518 -50.07084767 15.69238284 -41.27392578 13.01855469 C-37.6492272 11.89087069 -34.04711745 10.70195611 -30.44921875 9.4921875 C-29.81223053 9.27802185 -29.17524231 9.0638562 -28.51895142 8.84320068 C-25.91407802 7.96574802 -23.30999282 7.08600151 -20.70678711 6.20361328 C-13.85920545 3.88524076 -7.05950943 1.59263964 0 0 Z " fill="#FCFCFD" transform="translate(2627,1400)"/>
<path d="M0 0 C3.86986958 -0.07442057 7.2735915 -0.04702186 11 1 C11.14410651 7.85805984 10.60146344 14.41364493 9.72265625 21.2109375 C9.52644936 22.7841124 9.52644936 22.7841124 9.32627869 24.3890686 C8.91020275 27.71838797 8.48674556 31.0467127 8.0625 34.375 C7.64310831 37.69629209 7.22532458 41.01777587 6.80943298 44.33950806 C6.55130473 46.39788531 6.29100659 48.45599213 6.02809143 50.51376343 C3.26499507 72.40551598 3.42621795 94.30056662 4.7221241 116.30012894 C4.90689803 119.44045538 5.08212729 122.58129993 5.25806904 125.72213173 C5.35396122 127.43391469 5.45026592 129.14567459 5.54696178 130.85741234 C6.09542428 140.59947323 6.59435408 150.34402516 7.093153 160.08873367 C7.30800752 164.28259414 7.52443274 168.47637304 7.74078465 172.67015648 C8.1279676 180.17570447 8.51443494 187.68128778 8.89819336 195.18701172 C9.17096311 200.52063924 9.44583922 205.85415467 9.72208977 211.187603 C9.82531708 213.18805354 9.92778104 215.18854364 10.02942085 217.18907547 C10.69572237 230.42366291 10.69572237 230.42366291 11.7855072 243.62850952 C12.17381671 247.92176466 12.32905508 252.22479778 12.5 256.53125 C12.54060547 257.48841919 12.58121094 258.44558838 12.62304688 259.4317627 C12.7942968 263.47046165 12.95937981 267.50940675 13.125 271.54833984 C13.24783889 274.52190467 13.37385995 277.49532366 13.5 280.46875 C13.53544922 281.36178833 13.57089844 282.25482666 13.60742188 283.17492676 C13.84095927 288.67099368 14.24884671 294.12813997 14.78929138 299.60273743 C15.05604124 302.63758933 15.09832729 305.64218024 15.0625 308.6875 C15.05347656 309.70199219 15.04445313 310.71648437 15.03515625 311.76171875 C15.02355469 312.50035156 15.01195313 313.23898437 15 314 C-6.72340426 314.19148936 -6.72340426 314.19148936 -16 313 C-16.00386719 312.1646875 -16.00386719 312.1646875 -16.0078125 311.3125 C-16.34262035 304.70562513 -18.35283135 300.69121765 -23 296 C-28.43151708 291.76076716 -35.41941161 292.24553764 -42 293 C-47.40261068 295.55913137 -50.82610496 299.35873616 -53.25 304.8125 C-53.4975 305.534375 -53.745 306.25625 -54 307 C-61.10983568 307.29168557 -67.19152898 306.26914355 -74.0625 304.5 C-75.50399414 304.14228516 -75.50399414 304.14228516 -76.97460938 303.77734375 C-79.31891043 303.19418428 -81.660383 302.60162494 -84 302 C-82.7555457 293.85833646 -80.17832096 286.2720832 -77.43478394 278.5440979 C-76.16497174 274.96448969 -74.9174888 271.37715094 -73.671875 267.7890625 C-73.30968117 266.7465609 -73.30968117 266.7465609 -72.94017029 265.68299866 C-71.29583752 260.92392947 -69.79963752 256.15894581 -68.4375 251.3125 C-65.92894094 242.39011594 -62.83020036 233.67286043 -59.73999023 224.9387207 C-57.54728523 218.69216651 -55.51256952 212.44654699 -53.68530273 206.08544922 C-51.15820242 197.40069354 -48.38066334 188.81132513 -45.53515625 180.2265625 C-45.01930409 178.66369999 -44.50370089 177.10075528 -43.98832703 175.53773499 C-42.90553857 172.25505106 -41.82124828 168.97286841 -40.73596191 165.69100952 C-39.04165197 160.56524671 -37.35575718 155.43673711 -35.67089844 150.30786133 C-30.97822427 136.03004862 -26.28322668 121.75527092 -21.41796875 107.53515625 C-14.54322805 87.35301806 -9.50032006 68.22782793 -7 47 C-6.65325728 44.25553803 -6.29565735 41.51252421 -5.9375 38.76953125 C-5.41142154 34.72586442 -4.8898922 30.68191225 -4.38525391 26.63549805 C-3.26255585 17.6754368 -1.88940897 8.83155557 0 0 Z " fill="#FCFCFE" transform="translate(2234,1577)"/>
<path d="M0 0 C2.48064523 14.10617716 4.65629102 28.22431105 6.42871094 42.43798828 C6.82783268 45.56764422 7.25988066 48.69100419 7.70526123 51.81436157 C7.90814167 53.31882359 8.09303855 54.82578456 8.26300049 56.33432007 C10.627734 77.222118 17.7058495 96.68263168 24.4181366 116.48204041 C26.03618024 121.26831099 27.63311504 126.06161009 29.23144531 130.85449219 C31.42435014 137.42545239 33.62229812 143.99466721 35.82900238 150.56100655 C39.87508747 162.60087958 43.84334337 174.66411777 47.75 186.75 C48.52888291 189.15155312 49.30857361 191.55284286 50.08836365 193.95410156 C50.59604378 195.51750551 51.10350355 197.08098103 51.61073303 198.64453125 C54.73571924 208.27524021 57.88353893 217.8984953 61.02865601 227.52264404 C62.04634565 230.63804748 63.06303743 233.75377459 64.0793457 236.86962891 C67.01623287 245.8726649 69.95576581 254.87471451 72.91963196 263.86891174 C74.1416897 267.57959929 75.35938811 271.29170899 76.5763855 275.00405884 C77.14371171 276.73080786 77.71309941 278.45688115 78.28469849 280.18222046 C79.06879377 282.54946427 79.84571628 284.91895149 80.62109375 287.2890625 C80.84944916 287.97218002 81.07780457 288.65529755 81.31307983 289.3591156 C82.68724233 293.59019056 83.48802777 297.60180631 84 302 C79.56365291 303.0051621 75.12574342 304.00324731 70.6875 305 C69.42486328 305.28617188 68.16222656 305.57234375 66.86132812 305.8671875 C65.65283203 306.13789062 64.44433594 306.40859375 63.19921875 306.6875 C62.08377686 306.93886719 60.96833496 307.19023438 59.8190918 307.44921875 C57 308 57 308 54 308 C53.649375 306.80375 53.29875 305.6075 52.9375 304.375 C51.15797313 299.58134629 48.23025067 296.77850555 44 294 C37.79246917 291.93082306 30.47063049 291.89703996 24.5 294.5625 C18.59129929 300.32348319 16.2087689 304.63026506 16 313 C5.69339617 314.32378398 -4.63223764 314.09139066 -15 314 C-15.13416637 305.02090164 -14.71482613 296.14010693 -14.10571289 287.18359375 C-13.91839705 284.32940496 -13.73430893 281.47501065 -13.55032349 278.62060547 C-13.5035291 277.89923558 -13.45673471 277.1778657 -13.40852231 276.43463612 C-12.94193065 269.1998042 -12.53651276 261.96198994 -12.14624023 254.72265625 C-12.07812669 253.45971741 -12.01001314 252.19677856 -11.93983555 250.89556885 C-11.76457074 247.62810484 -11.59027726 244.36059131 -11.41664004 241.09304047 C-11.22983269 237.58232412 -11.04155125 234.07168671 -10.85353088 230.56103516 C-10.53909919 224.68576433 -10.22584865 218.81043147 -9.91333008 212.93505859 C-9.55603968 206.21830286 -9.19668031 199.50166015 -8.83626598 192.78507137 C-8.4836365 186.21240471 -8.13263046 179.63965221 -7.78227425 173.06686401 C-7.63571004 170.31791326 -7.48859382 167.56899298 -7.34097099 164.82009888 C-6.5933505 150.87592151 -5.86039539 136.93404686 -5.36399746 122.97824097 C-5.15372732 117.42436261 -4.76365434 111.91447855 -4.22123432 106.38285637 C-3.68850656 100.64498654 -3.66192957 94.88373702 -3.625 89.125 C-3.62010559 88.41499847 -3.61521118 87.70499695 -3.61016846 86.97348022 C-3.54831752 64.71112452 -6.59956434 42.55274784 -9.60595703 20.52856445 C-9.69922272 19.84396652 -9.7924884 19.15936859 -9.88858032 18.45402527 C-10.13580822 16.65644363 -10.38892824 14.85967499 -10.64257812 13.06298828 C-11.1166462 9.0003803 -11.14330527 5.08420033 -11 1 C-7.32589215 -0.17571451 -3.83070817 -0.07366746 0 0 Z " fill="#FCFCFE" transform="translate(2266,1577)"/>
<path d="M0 0 C3.32068737 1.25352858 6.30162014 2.66746995 9.3203125 4.53125 C10.10277344 5.01207031 10.88523437 5.49289062 11.69140625 5.98828125 C12.49449219 6.48714844 13.29757813 6.98601562 14.125 7.5 C15.34123047 8.24830078 15.34123047 8.24830078 16.58203125 9.01171875 C19.7529823 10.96670179 22.9001061 12.93340407 26 15 C25.49396008 17.16874252 25.00016187 18.99967627 24 21 C23.51112268 26.80241278 23.14454562 32.15748286 25.625 37.5 C31.29328439 43.58511839 31.29328439 43.58511839 38.98046875 46.203125 C46.5186808 46.36322862 52.06192741 44.6796731 58 40 C60.37317575 42.13585817 62.74602785 44.2720593 65.1171875 46.41015625 C67.01201074 48.11241615 68.91289896 49.80795351 70.8203125 51.49609375 C71.70460938 52.28113281 72.58890625 53.06617188 73.5 53.875 C74.3146875 54.59429688 75.129375 55.31359375 75.96875 56.0546875 C78 58 78 58 80 61 C64.90649855 75.17668915 64.90649855 75.17668915 58.87890625 80.37109375 C54.86421955 83.85160176 50.94386283 87.43973477 47 91 C45.33359149 92.50028679 43.66692647 94.00028872 42 95.5 C41.175 96.2425 40.35 96.985 39.5 97.75 C12 122.5 12 122.5 9.5078125 124.7421875 C7.81407106 126.26708244 6.12138831 127.79315402 4.4296875 129.3203125 C0.68435744 132.69912708 -3.06518207 136.06895965 -6.875 139.375 C-10.84252724 142.82851561 -14.7084764 146.3900394 -18.57763672 149.95263672 C-21.9644456 153.06585044 -25.39897544 156.11244538 -28.875 159.125 C-31.61823456 161.54550108 -34.30882906 164.0220241 -37 166.5 C-40.93284841 170.12090134 -44.90214012 173.68958925 -48.94140625 177.19140625 C-51.4895665 179.4301125 -53.99410593 181.71410212 -56.5 184 C-59.61907011 186.84524228 -62.74755391 189.6719958 -65.9375 192.4375 C-69.3468883 195.39883727 -72.67786038 198.4416122 -76 201.5 C-81.52469902 206.58334375 -87.04685571 211.66029181 -92.93359375 216.32421875 C-95.99669466 218.8758486 -98.30575382 221.73083664 -100.6875 224.9375 C-101.55916581 226.09690337 -102.43158782 227.25573853 -103.3046875 228.4140625 C-103.97129395 229.30399902 -103.97129395 229.30399902 -104.65136719 230.21191406 C-106.83527079 233.10744447 -109.07067532 235.96170447 -111.3125 238.8125 C-111.98949951 239.67464111 -111.98949951 239.67464111 -112.68017578 240.55419922 C-116.25967499 245.09639993 -119.90492073 249.58307708 -123.5625 254.0625 C-130.23296862 262.23197252 -136.68451564 270.55253685 -143 279 C-147.45941297 277.59847021 -149.79491575 275.33436496 -153 272 C-152.29617187 271.06542969 -151.59234375 270.13085938 -150.8671875 269.16796875 C-144.69525808 260.96099937 -138.57384054 252.71988955 -132.50878906 244.43359375 C-129.33812753 240.11801936 -126.12226425 235.84550342 -122.8359375 231.6171875 C-121.7835791 230.25823364 -121.7835791 230.25823364 -120.70996094 228.87182617 C-119.37451356 227.15247676 -118.03203564 225.43855117 -116.68066406 223.73168945 C-107.91571989 212.43160848 -101.61537427 199.56171478 -95.125 186.875 C-94.39450519 185.45293382 -93.66395362 184.0308968 -92.93334961 182.60888672 C-86.66500756 170.3863186 -80.51602915 158.10397468 -74.41650391 145.79638672 C-70.74194051 138.39490935 -66.9910135 131.04361907 -63.12109375 123.7421875 C-57.73819643 113.5815472 -52.61027833 103.29978578 -47.5 93 C-42.43499546 82.79146372 -37.35593659 72.59917567 -32.015625 62.53125 C-26.57724981 52.27820213 -21.40881266 41.89581736 -16.25 31.5 C-5.07820062 8.9897172 -5.07820062 8.9897172 0 0 Z " fill="#FDFDFE" transform="translate(2446,1162)"/>
<path d="M0 0 C10.01861829 19.36431759 19.95092578 38.76624906 29.63232422 58.30175781 C33.2791726 65.64699412 37.00245855 72.9418626 40.84375 80.1875 C46.90346744 91.62457916 52.64134351 103.21863398 58.39550781 114.81152344 C63.57201335 125.23345785 68.8123289 135.60800297 74.26696777 145.88731384 C77.33465557 151.68759154 80.29939964 157.53392218 83.21875 163.41015625 C83.65348633 164.28513763 84.08822266 165.16011902 84.53613281 166.06161499 C86.30163403 169.61993793 88.06412581 173.17973007 89.82275391 176.74145508 C101.60740639 201.10937783 101.60740639 201.10937783 116.75 223.4375 C118.13937701 225.2137838 119.52737023 226.99115076 120.9140625 228.76953125 C121.59887695 229.64174316 122.28369141 230.51395508 122.98925781 231.41259766 C126.10995003 235.42827227 129.12111863 239.52159756 132.125 243.625 C132.68429199 244.3871582 133.24358398 245.14931641 133.81982422 245.93457031 C134.95400185 247.48055271 136.08762476 249.02694222 137.22070312 250.57373047 C140.43071546 254.95093993 143.65380684 259.31851595 146.875 263.6875 C148.05994889 265.29553382 149.24484989 266.90360294 150.4296875 268.51171875 C150.92710449 269.18678467 151.42452148 269.86185059 151.93701172 270.55737305 C152.28779785 271.03343994 152.63858398 271.50950684 153 272 C149.87378374 275.39417765 147.43458973 277.6062718 143 279 C137.11658242 271.66883045 131.240899 264.33227263 125.4375 256.9375 C124.98705322 256.36354492 124.53660645 255.78958984 124.07250977 255.19824219 C121.82002281 252.32594879 119.57099615 249.45097974 117.32421875 246.57421875 C112.30613382 240.15630915 107.24314142 233.77597602 102.125 227.4375 C101.58955566 226.77057129 101.05411133 226.10364258 100.50244141 225.41650391 C97.51271268 221.72926556 94.41923205 218.30429988 91 215 C90.13955078 214.12214844 90.13955078 214.12214844 89.26171875 213.2265625 C85.74354787 209.64728196 82.10106788 206.29198862 78.30078125 203.015625 C75.4922698 200.55519731 72.74538121 198.03025008 70 195.5 C66.69986653 192.46095466 63.3905024 189.43843541 60 186.5 C56.0691075 183.0932265 52.24803427 179.56997215 48.421875 176.046875 C45.64505943 173.49444857 42.85019283 170.97016712 40 168.5 C36.60949156 165.56155935 33.30033018 162.53883698 30 159.5 C26.04140277 155.8558306 22.04823168 152.26086221 17.984375 148.734375 C13.94625309 145.20499286 9.98085319 141.59365774 6 138 C4.33359149 136.49971321 2.66692647 134.99971128 1 133.5 C-9 124.5 -19 115.5 -29 106.5 C-29.82242187 105.76007813 -30.64484375 105.02015625 -31.4921875 104.2578125 C-33.18592894 102.73291756 -34.87861169 101.20684598 -36.5703125 99.6796875 C-40.31564256 96.30087292 -44.06518207 92.93104035 -47.875 89.625 C-51.30332315 86.64083208 -54.65616629 83.57807108 -58 80.5 C-62.60609247 76.260904 -67.26733994 72.09707554 -72 68 C-73.50064092 66.68823285 -75.00064969 65.37574214 -76.5 64.0625 C-77.1703125 63.47597656 -77.840625 62.88945313 -78.53125 62.28515625 C-79.0159375 61.86105469 -79.500625 61.43695312 -80 61 C-76.29496053 56.36870067 -72.28803999 52.26511362 -67.9375 48.25 C-67.4312207 47.77844482 -66.92494141 47.30688965 -66.40332031 46.82104492 C-63.45080958 44.13026457 -60.49933289 41.92623829 -57 40 C-56.2575 40.61875 -55.515 41.2375 -54.75 41.875 C-49.72037263 45.76153024 -46.14228749 46.50090724 -39.82421875 46.3828125 C-34.05728166 45.60112532 -30.37782762 42.51914327 -26.5625 38.3125 C-23.97416225 34.48176014 -23.83833277 32.19689975 -23.8125 27.5625 C-23.79832031 26.40878906 -23.78414062 25.25507812 -23.76953125 24.06640625 C-23.76074912 20.82719832 -23.76074912 20.82719832 -26 18 C-26 17.01 -26 16.02 -26 15 C-24.33520508 13.60546875 -24.33520508 13.60546875 -22.01953125 12.1875 C-21.18486328 11.66929688 -20.35019531 11.15109375 -19.49023438 10.6171875 C-18.16475586 9.81667969 -18.16475586 9.81667969 -16.8125 9 C-15.51602539 8.19949219 -15.51602539 8.19949219 -14.19335938 7.3828125 C-12.52816582 6.35690015 -10.85919499 5.33708691 -9.18603516 4.32421875 C-7.45161744 3.27357304 -5.72941337 2.20276917 -4.01171875 1.125 C-2 0 -2 0 0 0 Z " fill="#FDFDFE" transform="translate(2054,1162)"/>
<path d="M0 0 C8.55435855 -0.10944854 16.97503616 0.19557807 25.5 0.875 C40.79048794 2.01918617 56.09483846 2.675885 71.4140625 3.30224609 C79.56495218 3.63961379 87.68235197 4.0078813 95.80786133 4.75219727 C102.76263322 5.29208969 109.73896568 5.51960007 116.70761108 5.81567383 C131.53968314 6.44860023 146.36671366 7.14152219 161.1875 8 C162.24809128 8.06074203 162.24809128 8.06074203 163.33010864 8.12271118 C170.97986362 8.56177214 178.62577666 9.03676184 186.26953125 9.5703125 C215.96717654 11.62110913 244.61914499 11.78491983 274.12792969 7.53466797 C280.59244635 6.64202664 287.07350305 5.94097182 293.5625 5.25 C295.29294556 5.05893677 295.29294556 5.05893677 297.05834961 4.86401367 C302.40374415 4.29242296 307.62389754 3.84573594 313 4 C314.17683626 7.67761331 314.03578346 11.16669708 314 15 C304.72208405 16.92380316 295.47032005 18.37881848 286.0625 19.5 C278.42781334 20.41053171 270.86534922 21.43539837 263.31640625 22.89916992 C259.72028905 23.58062399 256.19500656 24.09755023 252.54296875 24.36328125 C234.67891671 25.84518352 218.22571368 32.26849385 201.415802 38.10191345 C192.50587997 41.18950591 183.54893437 44.12175014 174.57650757 47.02182007 C170.11068577 48.46560128 165.6473614 49.91707079 161.18359375 51.3671875 C160.28000626 51.66048447 159.37641876 51.95378143 158.44544983 52.25596619 C148.49794161 55.48533792 138.55662066 58.73361721 128.61532593 61.98205566 C110.38325235 67.93945353 92.14958833 73.89196546 73.90820312 79.82080078 C65.58125963 82.5278037 57.25662342 85.24140797 48.93844604 87.97525024 C44.92695286 89.2933083 40.91441512 90.60816959 36.90179443 91.92279053 C34.98057358 92.55322963 33.0598699 93.18524715 31.13970947 93.81890869 C28.49025391 94.69312825 25.83909462 95.56198156 23.1875 96.4296875 C22.39906708 96.69142761 21.61063416 96.95316772 20.79830933 97.22283936 C17.75353747 98.21447182 15.22410073 99 12 99 C10.9948379 94.56365291 9.99675269 90.12574342 9 85.6875 C8.71382812 84.42486328 8.42765625 83.16222656 8.1328125 81.86132812 C7.86210938 80.65283203 7.59140625 79.44433594 7.3125 78.19921875 C7.06113281 77.08377686 6.80976562 75.96833496 6.55078125 74.8190918 C6 72 6 72 6 69 C6.59167969 68.78085938 7.18335938 68.56171875 7.79296875 68.3359375 C13.42148025 66.07718737 16.57485842 64.03067669 20 59 C21.93190578 53.20428265 22.39746269 46.12857564 19.87109375 40.47265625 C16.46710907 35.69996755 12.74479914 32.67840564 6.84375 31.609375 C4.90257079 31.34963975 2.95124174 31.16821049 1 31 C0.14785221 23.93111222 -0.12746455 16.9911168 -0.0625 9.875 C-0.05798828 8.91851563 -0.05347656 7.96203125 -0.04882812 6.9765625 C-0.03720017 4.65097242 -0.02086102 2.3255224 0 0 Z " fill="#FDFDFE" transform="translate(1859,1501)"/>
<path d="M0 0 C8.56894254 1.65665426 16.72848249 4.42288259 24.9921875 7.171875 C26.56560728 7.69167069 28.13916282 8.21105559 29.71284485 8.73005676 C33.04289038 9.82915193 36.37205918 10.93084678 39.70053101 12.03469849 C44.91258655 13.76314399 50.12660496 15.48560954 55.34106445 17.20678711 C57.07954665 17.78067762 58.81802627 18.35457591 60.5565033 18.92848206 C61.41164961 19.2107773 62.26679592 19.49307255 63.14785576 19.7839222 C65.72404621 20.63459798 68.30004797 21.48584281 70.87599182 22.33726501 C83.30284399 26.44422765 95.73892804 30.52180282 108.1875 34.5625 C109.83187998 35.09664432 111.47624852 35.63082386 113.12060547 36.16503906 C115.55615303 36.95624922 117.99171611 37.74741113 120.42736816 38.53829956 C129.02364724 41.33044877 137.61519111 44.13706927 146.20654297 46.94433594 C150.36252918 48.30226988 154.51911895 49.65833026 158.67626953 51.01269531 C167.82848458 53.99560241 176.97770808 56.98605789 186.1111145 60.02615356 C190.00382458 61.32093919 193.89899732 62.60821848 197.79443359 63.89477539 C199.60443844 64.49486431 201.41325295 65.09855865 203.22070312 65.70629883 C217.96580058 70.66278676 232.340345 73.71719711 247.8125 75.5625 C253.39730707 76.23792587 258.94244556 76.95658788 264.47265625 77.99609375 C271.1358801 79.24763442 277.841939 80.04342367 284.5703125 80.85546875 C290.48293196 81.59454618 296.20372595 82.61367466 302 84 C302.07442057 87.86986958 302.04702186 91.2735915 301 95 C291.18032216 94.64965472 281.49323093 93.91229061 271.75390625 92.58984375 C270.7770285 92.45732208 269.80015076 92.32480042 268.79367065 92.18826294 C266.76313691 91.91199775 264.73262992 91.63553579 262.70214844 91.35888672 C241.32601515 88.48989713 220.5402503 87.00665152 199 88 C197.98341309 88.04634583 197.98341309 88.04634583 196.94628906 88.09362793 C188.6921454 88.4808461 180.4487006 88.99822248 172.20576477 89.5737915 C164.53638978 90.10812276 156.86281549 90.56045073 149.1875 91 C148.47824371 91.04106873 147.76898743 91.08213745 147.03823853 91.12445068 C133.31123779 91.91633729 119.57753022 92.52564226 105.84094238 93.12399292 C92.98746296 93.68666897 80.16237037 94.40340236 67.32910156 95.3203125 C58.2691358 95.95433399 49.21679282 96.31858146 40.13989258 96.60351562 C30.43369076 96.93018387 20.76140459 97.5824397 11.07983398 98.33984375 C3.370295 98.92173734 -4.26926991 99.10774815 -12 99 C-12.19148936 77.27659574 -12.19148936 77.27659574 -11 68 C-10.27554687 67.91363281 -9.55109375 67.82726563 -8.8046875 67.73828125 C-0.84233478 66.58108599 2.97322055 65.03570593 7.875 58.5 C10.00329383 51.87864143 10.31544226 44.77704478 7.3125 38.4375 C3.17790131 34.07940948 -0.16039404 31.62965748 -6 30 C-5.38627074 23.12199963 -4.10103248 16.6335677 -2.4375 9.9375 C-2.20353516 8.97650391 -1.96957031 8.01550781 -1.72851562 7.02539062 C-1.15731953 4.68232091 -0.58009792 2.34087598 0 0 Z " fill="#FDFDFE" transform="translate(1871,1400)"/>
<path d="M0 0 C4.63129933 3.70503947 8.73488638 7.71196001 12.75 12.0625 C13.45733276 12.82191895 13.45733276 12.82191895 14.17895508 13.59667969 C16.86973543 16.54919042 19.07376171 19.50066711 21 23 C20.071875 24.11375 20.071875 24.11375 19.125 25.25 C15.23846976 30.27962737 14.49909276 33.85771251 14.6171875 40.17578125 C15.39887468 45.94271834 18.48085673 49.62217238 22.6875 53.4375 C26.46742912 55.99150616 28.67992477 56.1614151 33.25 56.1875 C34.36890625 56.20167969 35.4878125 56.21585938 36.640625 56.23046875 C40.07764584 55.99467313 42.79530445 55.22846663 46 54 C47.93844269 57.06190426 49.87558576 60.12462869 51.8125 63.1875 C52.35970703 64.05181641 52.90691406 64.91613281 53.47070312 65.80664062 C54.98482997 68.20171401 56.49326779 70.60027033 58 73 C58.93392578 74.47919922 58.93392578 74.47919922 59.88671875 75.98828125 C61 78 61 78 61 80 C40.22711351 90.70332921 19.43399423 101.35812628 -1.50488281 111.73388672 C-8.79807783 115.35453743 -16.03968181 119.05418353 -23.234375 122.8671875 C-34.27952932 128.71806474 -45.46998056 134.26779804 -56.66601562 139.82275391 C-65.99158362 144.45303868 -75.29037167 149.11624026 -84.48828125 153.99609375 C-91.10790686 157.5078616 -97.76957922 160.9197609 -104.48046875 164.25390625 C-105.79991989 164.90950027 -105.79991989 164.90950027 -107.14602661 165.57833862 C-110.72651183 167.35490402 -114.30848335 169.12842652 -117.89233398 170.89819336 C-126.98510287 175.39235832 -136.04866681 179.91370053 -144.90625 184.859375 C-145.53641525 185.2091188 -146.16658051 185.55886261 -146.81584167 185.91920471 C-152.06879813 188.90046074 -156.78740841 192.40222041 -161.46875 196.20703125 C-165.65690262 199.55585282 -169.98609482 202.70816976 -174.3125 205.875 C-180.40023914 210.34209164 -186.46708071 214.8341243 -192.5 219.375 C-198.62108565 223.98119099 -204.78395336 228.52233929 -211 233 C-214.44802976 229.82418312 -216.41996314 227.39309313 -218 223 C-207.80553525 214.81872787 -197.56137457 206.70504039 -187.27050781 198.64550781 C-183.17503697 195.4370425 -179.08502115 192.22175911 -175 189 C-174.34225586 188.48195801 -173.68451172 187.96391602 -173.00683594 187.43017578 C-170.98081641 185.83208639 -168.95868881 184.22919296 -166.9375 182.625 C-166.31818604 182.13717041 -165.69887207 181.64934082 -165.06079102 181.14672852 C-161.4740541 178.29059592 -158.19372876 175.30180756 -155 172 C-154.34257812 171.35417969 -153.68515625 170.70835937 -153.0078125 170.04296875 C-149.15807225 166.24913759 -145.50456672 162.36228809 -141.98046875 158.265625 C-139.53394232 155.46683737 -137.01923279 152.73310183 -134.5 150 C-131.46093308 146.69988699 -128.43843486 143.39050176 -125.5 140 C-122.56155935 136.60949156 -119.53883698 133.30033018 -116.5 130 C-112.8558306 126.04140277 -109.26086221 122.04823168 -105.734375 117.984375 C-102.20499286 113.94625309 -98.59365774 109.98085319 -95 106 C-93.49971321 104.33359149 -91.99971128 102.66692647 -90.5 101 C-72.5 81 -72.5 81 -54.5 61 C-53.76007812 60.17757813 -53.02015625 59.35515625 -52.2578125 58.5078125 C-50.73291756 56.81407106 -49.20684598 55.12138831 -47.6796875 53.4296875 C-44.30087292 49.68435744 -40.93104035 45.93481793 -37.625 42.125 C-34.17216181 38.158251 -30.61122619 34.29317331 -27.04956055 30.42456055 C-23.91607034 27.01536197 -20.84489232 23.56141421 -17.8125 20.0625 C-15.55281494 17.49113424 -13.24562735 14.965449 -10.9375 12.4375 C-7.21217822 8.35386482 -3.56612119 4.22303826 0 0 Z " fill="#FDFDFE" transform="translate(2527,1224)"/>
<path d="M0 0 C6.32652937 3.84883916 12.24839576 7.89649273 17.97265625 12.58984375 C24.30788346 17.63350206 30.90671516 22.33647901 37.44042969 27.11816406 C40.00291988 29.00214674 42.55374468 30.90092044 45.1015625 32.8046875 C46.34885132 33.7335376 46.34885132 33.7335376 47.62133789 34.68115234 C49.19343298 35.85248032 50.7631297 37.0270377 52.32983398 38.20556641 C61.57737525 45.07493449 71.518937 50.43454272 81.75 55.6875 C82.99528763 56.32965634 84.24056734 56.97182802 85.48583984 57.61401367 C96.9841316 63.52966089 108.55698113 69.29604584 120.13140869 75.06085205 C129.35833082 79.65698503 138.559855 84.27741809 147.64697266 89.14575195 C157.49002138 94.3813923 167.51065811 99.27893464 177.49853516 104.23071289 C185.0618547 107.98718727 192.5797494 111.81019041 200.0390625 115.76953125 C211.70937018 121.95764621 223.54618218 127.80991914 235.375 133.6875 C262.44799928 147.14052688 262.44799928 147.14052688 273 153 C271.74647142 156.32068737 270.33253005 159.30162014 268.46875 162.3203125 C267.74751953 163.49400391 267.74751953 163.49400391 267.01171875 164.69140625 C266.51285156 165.49449219 266.01398437 166.29757812 265.5 167.125 C265.00113281 167.93582031 264.50226562 168.74664063 263.98828125 169.58203125 C262.03329821 172.7529823 260.06659593 175.9001061 258 179 C257.1440625 178.67773438 256.288125 178.35546875 255.40625 178.0234375 C248.87466804 176.06096677 241.7395322 175.72807433 235.5 178.625 C230.19785588 183.66203691 226.90254304 187.61911473 226.625 195.1875 C226.63866238 200.34504871 227.80647047 203.27959462 230.90625 207.34375 C232 209 232 209 232 212 C230.34765625 214.12890625 230.34765625 214.12890625 228.0625 216.5625 C223.91590312 221.01042935 219.90619695 225.550129 215.9453125 230.1640625 C214 232 214 232 211 232 C208.96615822 230.04941491 207.10952573 228.10611814 205.25 226 C204.70996338 225.40131104 204.16992676 224.80262207 203.61352539 224.18579102 C200.3172359 220.52110144 197.0638053 216.81828828 193.83984375 213.08984375 C191.43329809 210.35629401 188.96695051 207.67887646 186.5 205 C182.87907279 201.06717596 179.31041014 197.09785918 175.80859375 193.05859375 C173.5698875 190.5104335 171.28589788 188.00589407 169 185.5 C166.15475772 182.38092989 163.3280042 179.25244609 160.5625 176.0625 C157.13231424 172.11332633 153.58996482 168.26977695 150.04711914 164.42211914 C146.93400701 161.03537381 143.88747918 157.60093751 140.875 154.125 C138.45449925 151.38176582 135.97799358 148.69115432 133.5 146 C129.89987244 142.09018405 126.35582395 138.14133532 122.875 134.125 C120.45449858 131.38176506 117.97795822 128.69118757 115.5 126 C111.8558306 122.04140277 108.26086221 118.04823168 104.734375 113.984375 C101.20499286 109.94625309 97.59365774 105.98085319 94 102 C92.49971321 100.33359149 90.99971128 98.66692647 89.5 97 C88.7575 96.175 88.015 95.35 87.25 94.5 C71.5 77 71.5 77 69.26953125 74.51953125 C67.70727799 72.78518814 66.14199577 71.05357021 64.57421875 69.32421875 C63.78660156 68.45410156 62.99898437 67.58398438 62.1875 66.6875 C61.47980469 65.90761719 60.77210938 65.12773438 60.04296875 64.32421875 C58 62 58 62 56.1015625 59.4921875 C53.70844584 56.65425362 51.16609424 54.65177572 48.1875 52.4375 C47.02238566 51.56129274 45.85836687 50.68362726 44.6953125 49.8046875 C43.78700684 49.11971191 43.78700684 49.11971191 42.86035156 48.42089844 C39.71853464 46.02124299 36.64191117 43.54140197 33.5625 41.0625 C27.00325777 35.79354528 20.40113187 30.58213838 13.77783203 25.39404297 C11.90099426 23.9223671 10.02640754 22.44786269 8.15234375 20.97265625 C7.52013916 20.47515869 6.88793457 19.97766113 6.23657227 19.46508789 C5.02980403 18.5153415 3.82324781 17.56532563 2.61694336 16.61499023 C-0.23048031 14.37541994 -3.08994358 12.15770037 -6 10 C-4.62466078 5.98859394 -2.68983519 3.25295109 0 0 Z " fill="#FDFDFE" transform="translate(2315,1543)"/>
<path d="M0 0 C3.86786546 2.81299306 6.83069326 5.98526547 9.9140625 9.59375 C12.38771067 12.44724677 14.93937823 15.22490771 17.5 18 C21.10057292 21.90940107 24.64418543 25.8586755 28.125 29.875 C30.54550142 32.61823494 33.02204178 35.30881243 35.5 38 C39.1441694 41.95859723 42.73913779 45.95176832 46.265625 50.015625 C49.79500714 54.05374691 53.40634226 58.01914681 57 62 C58.50028679 63.66640851 60.00028872 65.33307353 61.5 67 C62.2425 67.825 62.985 68.65 63.75 69.5 C97.5 107 97.5 107 99.7421875 109.4921875 C101.26708244 111.18592894 102.79315402 112.87861169 104.3203125 114.5703125 C107.69912708 118.31564256 111.06895965 122.06518207 114.375 125.875 C117.82851561 129.84252724 121.3900394 133.7084764 124.95263672 137.57763672 C128.06585044 140.9644456 131.11244538 144.39897544 134.125 147.875 C136.54550308 150.61823682 139.02213026 153.3087292 141.5 156 C152.36621953 167.81094773 152.36621953 167.81094773 155.79296875 172.40234375 C158.35596244 175.41896464 161.23981947 177.74564136 164.375 180.125 C165.63421471 181.09752662 166.89332646 182.07018656 168.15234375 183.04296875 C168.79284668 183.53458496 169.43334961 184.02620117 170.09326172 184.53271484 C173.05750192 186.81377549 175.99775437 189.12501161 178.9375 191.4375 C179.51161621 191.88818848 180.08573242 192.33887695 180.67724609 192.80322266 C185.59930218 196.6716276 190.48604973 200.58333126 195.37011719 204.49951172 C199.7923482 208.04215104 204.23234885 211.56135274 208.6875 215.0625 C209.26371094 215.51560547 209.83992188 215.96871094 210.43359375 216.43554688 C213.26503124 218.656877 216.10998502 220.85534168 219 223 C217.59847021 227.45941297 215.33436496 229.79491575 212 233 C211.49364014 232.6189209 210.98728027 232.2378418 210.46557617 231.84521484 C200.41523674 224.28515504 190.36102789 216.73233376 180.1887207 209.33666992 C176.13749394 206.37617394 172.17400874 203.35472288 168.30078125 200.1640625 C153.79153992 188.34680571 138.04177233 180.33375599 121.33660889 172.14953613 C116.40341941 169.72256618 111.49110474 167.25363446 106.57551575 164.79127502 C102.5555454 162.77781193 98.53420186 160.76742518 94.50610352 158.77026367 C86.84702422 154.96777775 79.23503588 151.09488452 71.6796875 147.08984375 C61.54022435 141.71670635 51.27892953 136.59993042 41 131.5 C29.98820269 126.03645441 19.01938397 120.51825902 8.15917969 114.75854492 C-1.14391062 109.83979155 -10.57370409 105.17689297 -20 100.5 C-33.42762669 93.83783137 -46.76625708 87.04035123 -60 80 C-58.84806806 76.99654191 -57.64129301 74.19407 -55.9765625 71.44140625 C-55.40421875 70.49104492 -55.40421875 70.49104492 -54.8203125 69.52148438 C-54.42585938 68.87501953 -54.03140625 68.22855469 -53.625 67.5625 C-53.23828125 66.91990234 -52.8515625 66.27730469 -52.453125 65.61523438 C-50.06741933 61.67241543 -47.58339295 57.81610785 -45 54 C-42.83125748 54.50603992 -41.00032373 54.99983813 -39 56 C-33.14524289 56.49328755 -27.81015719 56.85744288 -22.4375 54.3125 C-18.25524959 50.34472397 -14.49293186 46.34155911 -13.62890625 40.484375 C-13.47953189 34.3336661 -14.14127074 30.59255615 -17.90625 25.65625 C-19 24 -19 24 -19 21 C-17.85546875 19.37890625 -17.85546875 19.37890625 -16.1875 17.5625 C-15.55972656 16.8715625 -14.93195313 16.180625 -14.28515625 15.46875 C-13.53105469 14.6540625 -12.77695313 13.839375 -12 13 C-11.0396563 11.94856315 -10.08006386 10.89643979 -9.12109375 9.84375 C-1.60179423 1.60179423 -1.60179423 1.60179423 0 0 Z " fill="#FDFDFE" transform="translate(1972,1224)"/>
<path d="M0 0 C3.39417765 3.12621626 5.6062718 5.56541027 7 10 C-1.48567569 16.9497575 -10.00599516 23.8230926 -18.7265625 30.4765625 C-22.97778302 33.73540085 -27.14626512 37.09685387 -31.32202148 40.45141602 C-36.30338362 44.45082851 -41.31610173 48.40856967 -46.34545898 52.34741211 C-47.8980808 53.56352796 -49.44908403 54.78170942 -51 56 C-51.88945312 56.68835937 -52.77890625 57.37671875 -53.6953125 58.0859375 C-55.78977001 59.82540222 -57.50032356 61.54836382 -59.25 63.625 C-61.9197808 66.74552301 -64.62339128 69.82617919 -67.375 72.875 C-68.13554687 73.71804688 -68.89609375 74.56109375 -69.6796875 75.4296875 C-70.44539063 76.27789063 -71.21109375 77.12609375 -72 78 C-73.50028679 79.66640851 -75.00028872 81.33307353 -76.5 83 C-85.5 93 -94.5 103 -103.5 113 C-104.23992188 113.82242187 -104.97984375 114.64484375 -105.7421875 115.4921875 C-107.26708244 117.18592894 -108.79315402 118.87861169 -110.3203125 120.5703125 C-113.69912708 124.31564256 -117.06895965 128.06518207 -120.375 131.875 C-123.82851561 135.84252724 -127.3900394 139.7084764 -130.95263672 143.57763672 C-133.50525763 146.35458682 -136.02968205 149.14963313 -138.5 152 C-141.4384401 155.3905078 -144.46114142 158.6996903 -147.5 162 C-151.12090134 165.93284841 -154.68958925 169.90214012 -158.19140625 173.94140625 C-161.2777948 177.45442302 -164.44628778 180.89299818 -167.59765625 184.34765625 C-169.56941844 186.52460996 -171.51365337 188.71838674 -173.4375 190.9375 C-176.86768576 194.88667367 -180.41003518 198.73022305 -183.95288086 202.57788086 C-187.0635124 205.96192756 -190.10820791 209.39305165 -193.1171875 212.8671875 C-196.02738819 216.16380488 -199.01506368 219.38982111 -202.00585938 222.61328125 C-205.1226066 225.98787259 -208.08430667 229.45274854 -211 233 C-215.63129933 229.29496053 -219.73488638 225.28803999 -223.75 220.9375 C-224.45733276 220.17808105 -224.45733276 220.17808105 -225.17895508 219.40332031 C-227.86973543 216.45080958 -230.07376171 213.49933289 -232 210 C-231.38125 209.29875 -230.7625 208.5975 -230.125 207.875 C-226.02260951 202.32470699 -225.24762478 196.73497172 -226 190 C-227.83891491 184.48325526 -231.44138646 181.37227556 -236 178 C-238.83387515 176.58306243 -241.28029373 176.8300987 -244.4375 176.8125 C-245.59121094 176.79832031 -246.74492188 176.78414062 -247.93359375 176.76953125 C-251.17280168 176.76074912 -251.17280168 176.76074912 -254 179 C-254.99 179 -255.98 179 -257 179 C-258.39453125 177.33520508 -258.39453125 177.33520508 -259.8125 175.01953125 C-260.33070312 174.18486328 -260.84890625 173.35019531 -261.3828125 172.49023438 C-261.91648437 171.60658203 -262.45015625 170.72292969 -263 169.8125 C-263.53367187 168.94818359 -264.06734375 168.08386719 -264.6171875 167.19335938 C-265.64309985 165.52816582 -266.66291309 163.85919499 -267.67578125 162.18603516 C-268.72642696 160.45161744 -269.79723083 158.72941337 -270.875 157.01171875 C-272 155 -272 155 -272 153 C-271.11183594 152.56171875 -270.22367188 152.1234375 -269.30859375 151.671875 C-261.36150319 147.73237348 -253.47554171 143.69098841 -245.625 139.5625 C-234.36302621 133.64710038 -222.99047111 127.96174219 -211.59228516 122.31469727 C-204.28739081 118.68853802 -197.03362789 114.98425115 -189.828125 111.1640625 C-178.38575286 105.10189895 -166.78658115 99.36124504 -155.18847656 93.60449219 C-144.76956301 88.42948709 -134.39801039 83.19075359 -124.12174988 77.73756409 C-118.29531909 74.65606404 -112.4221981 71.67870836 -106.51953125 68.74609375 C-105.63981659 68.30899078 -104.76010193 67.87188782 -103.85372925 67.42153931 C-100.27332504 65.64501535 -96.69143507 63.87153319 -93.10766602 62.10180664 C-69.93900685 50.78636101 -69.93900685 50.78636101 -48.6875 36.3125 C-46.89295822 34.9140404 -45.09736294 33.51693174 -43.30078125 32.12109375 C-42.41600098 31.42999512 -41.5312207 30.73889648 -40.61962891 30.02685547 C-36.58818479 26.90765239 -32.48691517 23.88689877 -28.375 20.875 C-27.23200439 20.03618286 -27.23200439 20.03618286 -26.06591797 19.18041992 C-24.51975455 18.04618578 -22.97320249 16.91248125 -21.42626953 15.77929688 C-17.04906007 12.56928454 -12.68148405 9.34619316 -8.3125 6.125 C-6.70446618 4.94005111 -5.09639706 3.75515011 -3.48828125 2.5703125 C-2.81321533 2.07289551 -2.13814941 1.57547852 -1.44262695 1.06298828 C-0.96656006 0.71220215 -0.49049316 0.36141602 0 0 Z " fill="#FDFDFE" transform="translate(2184,1543)"/>
<path d="M0 0 C3.25469502 1.08489834 3.70466657 1.57777651 5.64453125 4.21875 C6.14944092 4.89518555 6.65435059 5.57162109 7.17456055 6.26855469 C7.71508057 7.00493164 8.25560059 7.74130859 8.8125 8.5 C13.45984969 14.71228029 18.22107336 20.78960677 23.1875 26.75 C27.27430906 31.6663653 31.30830328 36.60527609 35.1875 41.6875 C35.97253906 42.71488281 36.75757812 43.74226563 37.56640625 44.80078125 C38.83459685 46.46589837 40.10037694 48.132745 41.36279297 49.80224609 C48.40364728 59.16027072 48.40364728 59.16027072 56.83984375 67.23046875 C59.66278255 69.54293037 62.32399228 72.0213551 65 74.5 C68.93164667 78.12218331 72.90217356 81.68961825 76.94140625 85.19140625 C80.45442302 88.2777948 83.89299818 91.44628778 87.34765625 94.59765625 C89.52460996 96.56941844 91.71838674 98.51365337 93.9375 100.4375 C97.88667367 103.86768576 101.73022305 107.41003518 105.57788086 110.95288086 C108.3547637 113.50540453 111.14972015 116.02975746 114 118.5 C117.3905078 121.4384401 120.6996903 124.46114142 124 127.5 C127.93284841 131.12090134 131.90214012 134.68958925 135.94140625 138.19140625 C139.45442302 141.2777948 142.89299818 144.44628778 146.34765625 147.59765625 C148.52460996 149.56941844 150.71838674 151.51365337 152.9375 153.4375 C156.88667367 156.86768576 160.73022305 160.41003518 164.57788086 163.95288086 C167.3547637 166.50540453 170.14972015 169.02975746 173 171.5 C176.9308925 174.9067735 180.75196573 178.43002785 184.578125 181.953125 C187.35494057 184.50555143 190.14980717 187.02983288 193 189.5 C196.39050971 192.43844175 199.69962885 195.46120625 203 198.5 C207.60603471 202.73915702 212.26734179 206.90292606 217 211 C218.50064092 212.31176715 220.00064969 213.62425786 221.5 214.9375 C222.50546875 215.81728516 222.50546875 215.81728516 223.53125 216.71484375 C224.0159375 217.13894531 224.500625 217.56304688 225 218 C221.14434256 222.84711222 216.90255321 227.10288051 212.375 231.3125 C211.53159058 232.10382324 211.53159058 232.10382324 210.67114258 232.91113281 C207.94862264 235.41380191 205.45530663 237.60944977 202 239 C201.2575 238.38125 200.515 237.7625 199.75 237.125 C193.92281148 232.62217251 189.24917657 232.34578028 182 233 C176.47449583 234.77233153 173.36591762 238.44998107 170 243 C168.60470419 245.79059162 168.83026646 248.13731688 168.8125 251.25 C168.79832031 252.36890625 168.78414062 253.4878125 168.76953125 254.640625 C169.00532687 258.07764584 169.77153337 260.79530445 171 264 C167.93809574 265.93844269 164.87537131 267.87558576 161.8125 269.8125 C160.94818359 270.35970703 160.08386719 270.90691406 159.19335938 271.47070312 C156.79828599 272.98482997 154.39972967 274.49326779 152 276 C151.01386719 276.62261719 150.02773437 277.24523438 149.01171875 277.88671875 C147 279 147 279 145 279 C141.35130334 271.87646395 137.7059018 264.75124554 134.0625 257.625 C133.51833435 256.56067749 132.9741687 255.49635498 132.41351318 254.39978027 C124.76396982 239.43221605 117.16506724 224.44155884 109.70727539 209.37744141 C106.28945744 202.48760687 102.78055343 195.6555031 99.1796875 188.859375 C93.31432113 177.78236208 87.74773022 166.56131672 82.17724609 155.33398438 C77.54792547 146.01035821 72.88517887 136.71423257 68.00390625 127.51953125 C64.47938261 120.87941522 61.07219183 114.19092453 57.74609375 107.44921875 C57.30903107 106.56485138 56.87196838 105.68048401 56.42166138 104.76931763 C54.64323361 101.16764223 52.86676079 97.56508763 51.10180664 93.95678711 C43.71021495 78.86387371 35.6889635 65.09236638 25.3125 51.8125 C23.91802555 50.00486622 22.52482239 48.1962511 21.1328125 46.38671875 C20.09688965 45.0416626 20.09688965 45.0416626 19.04003906 43.66943359 C15.87249353 39.5246343 12.77461125 35.32989545 9.6875 31.125 C9.1205542 30.35285156 8.5536084 29.58070312 7.96948242 28.78515625 C6.31165214 26.52441305 4.65580552 24.26222639 3 22 C1.89475897 20.49332251 0.78929421 18.98680911 -0.31640625 17.48046875 C-2.87942512 13.98831062 -5.44038706 10.49465521 -8 7 C-5.42215154 4.35247996 -3.08351902 2.05567935 0 0 Z " fill="#FDFDFE" transform="translate(2301,1559)"/>
<path d="M0 0 C2.71775967 10.99825296 5.26139482 22.00581584 7.4375 33.125 C9.08682434 41.55144253 10.85177109 49.93867963 12.75 58.3125 C15.72479498 71.46930083 18.40719143 84.68082052 21.08813477 97.89996338 C23.59597967 110.25598666 26.18813092 122.58184034 28.97265625 134.87890625 C30.82384379 143.09031915 32.48571342 151.33097672 34.10644531 159.59057617 C35.84645548 168.39122569 37.78685034 177.14060356 39.76733398 185.88989258 C41.02453329 191.48045151 42.22968367 197.07281352 43.31640625 202.69921875 C43.52716797 203.78976562 43.73792969 204.8803125 43.95507812 206.00390625 C44.34109082 208.0270596 44.71956985 210.05167611 45.08789062 212.078125 C48.44369259 229.69305663 55.42170124 246.15226352 62 262.75 C62.89892476 265.03236023 63.79736531 267.31491124 64.6953125 269.59765625 C68.37996689 278.94649399 72.07333354 288.27515711 76.07104492 297.4956665 C77 300 77 300 77 303 C73.7 304.32 70.4 305.64 67 307 C63.43388479 300.01964573 60.18466837 292.97832761 57.12890625 285.76171875 C56.68409409 284.71909378 56.23928192 283.67646881 55.7809906 282.60224915 C54.37190087 279.29857019 52.9668573 275.99319312 51.5625 272.6875 C42.36948603 249.67407494 42.36948603 249.67407494 30.75 227.875 C30.34652344 227.24013672 29.94304688 226.60527344 29.52734375 225.95117188 C24.34147414 217.85852521 18.94744402 209.8977945 13.59667969 201.91357422 C9.24742404 195.41729295 4.99075731 188.88134317 0.90625 182.21484375 C-3.22435486 175.53052034 -7.62494499 169.02541578 -12 162.5 C-17.15502049 154.81126192 -22.25691783 147.10924483 -27.09375 139.21484375 C-31.22435486 132.53052034 -35.62494499 126.02541578 -40 119.5 C-45.15502049 111.81126192 -50.25691783 104.10924483 -55.09375 96.21484375 C-59.59959782 88.92328596 -64.42028222 81.83732325 -69.19393921 74.71984863 C-74.23299724 67.2032873 -79.21198725 59.66195304 -83.91992188 51.93164062 C-85.75404295 48.93003758 -87.67919301 46.10950592 -89.82421875 43.328125 C-92 40 -92 40 -91.94995117 37.98046875 C-90.5744852 35.11288202 -88.78379647 34.42435262 -85.9765625 32.984375 C-84.955625 32.45585938 -83.9346875 31.92734375 -82.8828125 31.3828125 C-81.80773438 30.84398437 -80.73265625 30.30515625 -79.625 29.75 C-78.55765625 29.19570312 -77.4903125 28.64140625 -76.390625 28.0703125 C-68.4304572 24 -68.4304572 24 -65 24 C-63.60546875 25.42578125 -63.60546875 25.42578125 -62.1875 27.3125 C-58.85849334 31.33335401 -56.0207413 33.59316616 -50.6796875 34.3125 C-44.61366501 34.60930844 -39.97187104 33.54475991 -35 30 C-31.21546409 26.11587104 -29.14659335 22.33669805 -28.8046875 16.88671875 C-28.82789062 15.83097656 -28.85109375 14.77523438 -28.875 13.6875 C-28.89304687 12.61886719 -28.91109375 11.55023437 -28.9296875 10.44921875 C-28.95289062 9.64097656 -28.97609375 8.83273437 -29 8 C-26.31342788 7.03899895 -23.62580289 6.08113751 -20.9375 5.125 C-20.18533203 4.85558594 -19.43316406 4.58617187 -18.65820312 4.30859375 C-5.56966146 -0.33755524 -5.56966146 -0.33755524 0 0 Z " fill="#FDFDFE" transform="translate(2148,1123)"/>
<path d="M0 0 C7.03331291 0.50800124 12.96772133 2.11909337 19.5625 4.5625 C20.47580078 4.89185547 21.38910156 5.22121094 22.33007812 5.56054688 C24.55674182 6.36494371 26.77972744 7.17816299 29 8 C28.95359375 8.7734375 28.9071875 9.546875 28.859375 10.34375 C28.62633008 17.06876055 28.57929094 22.63795396 33 28 C37.18942441 31.97611359 41.22207507 34.35502658 47.0625 34.625 C52.777273 34.23454967 57.5154619 32.47849299 61.60546875 28.3984375 C62.80160278 26.98451996 63.91070674 25.49777823 65 24 C70.86094565 24.93927091 75.54601837 27.6360623 80.75 30.375 C81.72066406 30.87 82.69132812 31.365 83.69140625 31.875 C84.61308594 32.35710937 85.53476563 32.83921875 86.484375 33.3359375 C87.32709961 33.77470215 88.16982422 34.2134668 89.03808594 34.66552734 C91 36 91 36 92 39 C90.84520169 41.25249121 89.63674581 43.26790549 88.25 45.375 C87.59801636 46.39158691 87.59801636 46.39158691 86.93286133 47.42871094 C85.30146159 49.96104921 83.65138179 52.48064598 82 55 C80.90975269 56.67043156 79.81951003 58.34086615 78.72937012 60.0113678 C75.05966063 65.63239202 71.37845349 71.24580536 67.69140625 76.85546875 C63.81926166 82.74702426 59.96373089 88.6491017 56.125 94.5625 C55.61074463 95.35454834 55.09648926 96.14659668 54.56665039 96.96264648 C53.55077896 98.52772491 52.53507004 100.09290884 51.51953125 101.65820312 C48.88987865 105.71084255 46.25756728 109.76175352 43.625 113.8125 C43.09342285 114.63049072 42.5618457 115.44848145 42.01416016 116.29125977 C37.21294116 123.677032 32.40006597 131.05518085 27.58642578 138.43286133 C23.55154956 144.61797694 19.52291053 150.80709586 15.5 157 C10.84119396 164.17180733 6.17320136 171.3375647 1.5 178.5 C-3.74405377 186.5377091 -8.98434984 194.57782373 -14.20898438 202.62817383 C-16.97098062 206.8834063 -19.74088562 211.13317462 -22.5234375 215.375 C-23.10528809 216.26421143 -23.68713867 217.15342285 -24.28662109 218.06958008 C-25.38861458 219.75334699 -26.49292 221.43560425 -27.60009766 223.1159668 C-28.10331543 223.88593994 -28.6065332 224.65591309 -29.125 225.44921875 C-29.56070313 226.11268311 -29.99640625 226.77614746 -30.4453125 227.4597168 C-34.73604196 234.47055852 -38.30819219 241.65311689 -41.546875 249.203125 C-41.9623761 250.16160339 -42.3778772 251.12008179 -42.80596924 252.10760498 C-44.12497904 255.15321744 -45.43756661 258.20154873 -46.75 261.25 C-47.61416728 263.24757587 -48.47874773 265.24497306 -49.34375 267.2421875 C-50.20330784 269.22908758 -51.06268357 271.21606645 -51.921875 273.203125 C-52.55422058 274.6654657 -52.55422058 274.6654657 -53.19934082 276.15734863 C-55.34895056 281.13870543 -57.47839885 286.12743309 -59.57617188 291.13085938 C-59.98683899 292.10512878 -60.3975061 293.07939819 -60.82061768 294.08319092 C-61.60128763 295.93763593 -62.3765559 297.79436671 -63.14569092 299.65362549 C-63.49238831 300.47530212 -63.83908569 301.29697876 -64.19628906 302.14355469 C-64.49762756 302.86694031 -64.79896606 303.59032593 -65.10943604 304.33563232 C-66 306 -66 306 -68 307 C-70.1640625 306.22265625 -70.1640625 306.22265625 -72.625 305.0625 C-73.44226562 304.68222656 -74.25953125 304.30195312 -75.1015625 303.91015625 C-75.72804688 303.60980469 -76.35453125 303.30945312 -77 303 C-76.36083665 299.29182387 -75.32907949 295.99465374 -73.94628906 292.49804688 C-73.30992523 290.87981018 -73.30992523 290.87981018 -72.66070557 289.22888184 C-71.97014069 287.49136658 -71.97014069 287.49136658 -71.265625 285.71875 C-70.53943349 283.87656056 -69.8132422 282.03437104 -69.08706284 280.19217682 C-68.06874646 277.6120848 -67.04651853 275.03354926 -66.02441406 272.45495605 C-64.49949599 268.60540326 -62.98010131 264.75366829 -61.46010971 260.90216827 C-60.27327447 257.89507563 -59.08532512 254.88843559 -57.89508057 251.88269043 C-56.5922905 248.59018571 -55.29513923 245.29552101 -54 242 C-53.54379272 240.84579559 -53.08758545 239.69159119 -52.61755371 238.50241089 C-52.1736731 237.36772369 -51.72979248 236.2330365 -51.27246094 235.06396484 C-50.87476501 234.05167816 -50.47706909 233.03939148 -50.06732178 231.99642944 C-48.22218284 226.81633402 -47.10955884 221.50212343 -46 216.125 C-45.75145264 214.96387695 -45.50290527 213.80275391 -45.24682617 212.60644531 C-44.73777825 210.22645573 -44.23278266 207.84559564 -43.73193359 205.46386719 C-43.04093427 202.19372097 -42.33185458 198.92824744 -41.61328125 195.6640625 C-39.61389674 186.57448528 -37.68377714 177.47839862 -35.86791992 168.35009766 C-34.29915069 160.47172641 -32.69658431 152.60015864 -31.09326172 144.72875977 C-30.69670462 142.77942866 -30.30120223 140.8298827 -29.90673828 138.88012695 C-28.0088669 129.50143997 -26.10354011 120.15966039 -23.69335938 110.89697266 C-22.85929884 107.41212678 -22.20239928 103.90325002 -21.5625 100.37890625 C-19.95195742 91.50869278 -17.9908008 82.72895851 -16 73.9375 C-13.80789626 64.2344592 -11.67316991 54.53219697 -9.75048828 44.77124023 C-8.51696646 38.57273291 -7.20539347 32.39091524 -5.89282227 26.20874023 C-5.43270692 24.03990698 -4.9750967 21.87055423 -4.51757812 19.70117188 C-3.12164921 13.10487845 -1.70961467 6.52375351 0 0 Z " fill="#FDFDFE" transform="translate(2352,1123)"/>
<path d="M0 0 C4.45941297 1.40152979 6.79491575 3.66563504 10 7 C8.94425781 8.40185547 8.94425781 8.40185547 7.8671875 9.83203125 C1.694637 18.03982649 -4.42641719 26.28245825 -10.4934082 34.56860352 C-13.65411602 38.86953657 -16.85757825 43.13010788 -20.12890625 47.34765625 C-20.8259668 48.24911377 -21.52302734 49.15057129 -22.24121094 50.0793457 C-23.56422885 51.78520296 -24.89368766 53.48609709 -26.23144531 55.18041992 C-37.77978226 70.08628451 -45.70775922 87.05451549 -54.01483154 103.88195801 C-56.73998133 109.39931822 -59.47739331 114.91061053 -62.21484375 120.421875 C-62.51017376 121.01704422 -62.80550377 121.61221344 -63.10978317 122.22541809 C-67.0969629 130.25653345 -71.17876289 138.22649471 -75.3891449 146.14251709 C-80.4432209 155.66863947 -85.20586389 165.34127512 -90 175 C-95.63935786 186.36158942 -101.32249921 197.68643731 -107.26696777 208.8918457 C-112.17824072 218.177365 -116.83156815 227.59075751 -121.5 237 C-127.88746493 249.87396032 -134.38367786 262.67456452 -141.13513184 275.36206055 C-141.77140975 276.56708201 -142.39058613 277.78117227 -143 279 C-147.49609114 277.39486957 -151.38294158 275.09896785 -155.4375 272.625 C-156.08009766 272.23828125 -156.72269531 271.8515625 -157.38476562 271.453125 C-161.32758457 269.06741933 -165.18389215 266.58339295 -169 264 C-168.67773438 263.1440625 -168.35546875 262.288125 -168.0234375 261.40625 C-166.04790583 254.83119802 -165.72374514 247.69431581 -168.6875 241.4375 C-172.65527603 237.25524959 -176.65844089 233.49293186 -182.515625 232.62890625 C-188.6663339 232.47953189 -192.40744385 233.14127074 -197.34375 236.90625 C-199 238 -199 238 -202 238 C-204.12890625 236.34765625 -204.12890625 236.34765625 -206.5625 234.0625 C-211.01042935 229.91590312 -215.550129 225.90619695 -220.1640625 221.9453125 C-222 220 -222 220 -222 217 C-220.04941491 214.96615822 -218.10611814 213.10952573 -216 211.25 C-215.10196655 210.43994507 -215.10196655 210.43994507 -214.18579102 209.61352539 C-210.52110144 206.3172359 -206.81828828 203.0638053 -203.08984375 199.83984375 C-200.35629362 197.43329774 -197.67889298 194.96693297 -195 192.5 C-191.04142739 188.85580449 -187.04823097 185.26086158 -182.984375 181.734375 C-178.94625309 178.20499286 -174.98085319 174.59365774 -171 171 C-169.33359149 169.49971321 -167.66692647 167.99971128 -166 166.5 C-164.7625 165.38625 -164.7625 165.38625 -163.5 164.25 C-136 139.5 -136 139.5 -133.5078125 137.2578125 C-131.81407106 135.73291756 -130.12138831 134.20684598 -128.4296875 132.6796875 C-124.68435744 129.30087292 -120.93481793 125.93104035 -117.125 122.625 C-113.15747276 119.17148439 -109.2915236 115.6099606 -105.42236328 112.04736328 C-102.0355544 108.93414956 -98.60102456 105.88755462 -95.125 102.875 C-92.38176582 100.45449925 -89.69115432 97.97799358 -87 95.5 C-83.09018405 91.89987244 -79.14133532 88.35582395 -75.125 84.875 C-72.38176318 82.45449692 -69.6912708 79.97786974 -67 77.5 C-55.18905227 66.63378047 -55.18905227 66.63378047 -50.59765625 63.20703125 C-47.58103536 60.64403756 -45.25435864 57.76018053 -42.875 54.625 C-41.90247338 53.36578529 -40.92981344 52.10667354 -39.95703125 50.84765625 C-39.46541504 50.20715332 -38.97379883 49.56665039 -38.46728516 48.90673828 C-36.18622451 45.94249808 -33.87498839 43.00224563 -31.5625 40.0625 C-31.11181152 39.48838379 -30.66112305 38.91426758 -30.19677734 38.32275391 C-26.3283724 33.40069782 -22.41666874 28.51395027 -18.50048828 23.62988281 C-14.95784896 19.2076518 -11.43864726 14.76765115 -7.9375 10.3125 C-7.48439453 9.73628906 -7.03128906 9.16007812 -6.56445312 8.56640625 C-4.343123 5.73496876 -2.14465832 2.89001498 0 0 Z " fill="#FDFDFE" transform="translate(2197,1559)"/>
<path d="M0 0 C4.729442 1.3441572 8.44257202 3.39936737 12.4375 6.1875 C13.76469047 7.09251782 15.09288333 7.99606676 16.421875 8.8984375 C17.14826172 9.39311523 17.87464844 9.88779297 18.62304688 10.39746094 C23.10959032 13.42228337 27.65151115 16.36257928 32.1875 19.3125 C33.17355225 19.95469482 34.15960449 20.59688965 35.17553711 21.25854492 C42.26077252 25.87201182 49.35004815 30.4792759 56.44018555 35.08520508 C62.79818359 39.21623578 69.14991198 43.35682262 75.5 47.5 C85.99216429 54.34541739 96.49414789 61.17561389 107 68 C118.48476826 75.46026997 129.9632066 82.93008519 141.43286133 90.41357422 C145.98454794 93.3828788 150.53716353 96.35071879 155.09375 99.3125 C156.31433105 100.10587769 156.31433105 100.10587769 157.55957031 100.9152832 C159.1832052 101.96960634 160.80755198 103.02283398 162.43261719 104.07495117 C166.90747445 106.9750747 171.36189614 109.90247058 175.796875 112.86328125 C176.78816406 113.52070312 177.77945313 114.178125 178.80078125 114.85546875 C180.6832727 116.10464519 182.56136401 117.36049549 184.43359375 118.625 C199.37307819 128.50468825 216.02397564 135.20111985 232.41162109 142.26538086 C236.02270239 143.82228807 239.63069279 145.38619053 243.23828125 146.95117188 C245.55451188 147.95353092 247.8709121 148.95549819 250.1875 149.95703125 C251.25532715 150.41954788 252.3231543 150.88206451 253.42333984 151.3585968 C258.90333233 153.71837535 264.3917873 155.96282513 270 158 C269.52269162 159.4589426 269.04308958 160.91713496 268.5625 162.375 C268.29566406 163.18710938 268.02882813 163.99921875 267.75390625 164.8359375 C267 167 267 167 266 169 C261.47939959 168.29658821 257.40448714 166.70459966 253.18359375 165.0078125 C252.42273468 164.70586472 251.66187561 164.40391693 250.87796021 164.09281921 C249.24482214 163.44414249 247.61243853 162.79356369 245.98074341 162.14126587 C243.41657126 161.11663699 240.85011368 160.09794163 238.28295898 159.08081055 C231.08807512 156.22834694 223.89780132 153.36469318 216.71794128 150.47460938 C214.83201136 149.71648378 212.94472641 148.96184711 211.05688477 148.20849609 C208.81743722 147.31384361 206.58067101 146.41243209 204.34741211 145.50244141 C190.84080968 140.11941384 176.84541498 137.23229317 162.625 134.5 C153.09996038 132.66098639 143.62827922 130.71892241 134.19444275 128.45478821 C127.85238563 126.94146502 121.47555756 125.65300565 115.07562256 124.40716553 C89.69277883 119.42792741 64.39789265 114.0534002 39.16271973 108.37771606 C25.28976069 105.26312472 11.3914314 102.23080332 -2.5625 99.5 C-14.09112871 97.24082692 -25.53851442 94.57405708 -37 92 C-36.49199876 84.96668709 -34.88090663 79.03227867 -32.4375 72.4375 C-32.10814453 71.52419922 -31.77878906 70.61089844 -31.43945312 69.66992188 C-30.63505629 67.44325818 -29.82183701 65.22027256 -29 63 C-28.2265625 63.04640625 -27.453125 63.0928125 -26.65625 63.140625 C-19.92088361 63.37402879 -14.4310551 63.32472906 -9 59 C-4.10903288 53.61993617 -2.62806597 48.78679739 -2.72265625 41.56640625 C-3.31094292 36.12268312 -6.13142706 32.55645524 -10.25 29.0625 C-11.61125 28.0415625 -11.61125 28.0415625 -13 27 C-12.40363334 23.23143439 -11.3155023 20.31811733 -9.53125 16.953125 C-9.04269531 16.02628906 -8.55414062 15.09945313 -8.05078125 14.14453125 C-7.53902344 13.18933594 -7.02726562 12.23414063 -6.5 11.25 C-5.73236328 9.79400391 -5.73236328 9.79400391 -4.94921875 8.30859375 C-1.15992374 1.15992374 -1.15992374 1.15992374 0 0 Z " fill="#FDFDFE" transform="translate(1910,1306)"/>
<path d="M0 0 C21.72340426 -0.19148936 21.72340426 -0.19148936 31 1 C31.08636719 1.72445313 31.17273437 2.44890625 31.26171875 3.1953125 C32.20493567 9.68533716 33.15825254 13.49604888 38 18 C43.68343564 22.09599327 49.24134442 21.61364843 56 21 C61.23137029 19.31848812 63.85349615 16.45754712 67 12 C67.70798412 10.01425003 68.38159299 8.01544467 69 6 C76.34100393 6.95533613 83.54923167 8.23000074 90.75 9.9375 C91.45318359 10.09508789 92.15636719 10.25267578 92.88085938 10.41503906 C94.859375 10.90234375 94.859375 10.90234375 98 12 C99.4148132 16.2444396 97.80618795 19.3060407 96.39453125 23.3671875 C96.11405441 24.19775665 95.83357758 25.02832581 95.54460144 25.88406372 C94.64232542 28.55065715 93.72787523 31.21287799 92.8125 33.875 C91.62844893 37.35052493 90.44901896 40.82761173 89.26953125 44.3046875 C88.83587753 45.57871429 88.83587753 45.57871429 88.39346313 46.878479 C86.49160288 52.48402655 84.70700136 58.11509619 82.99487305 63.78173828 C80.72937528 71.11027608 78.22824287 78.36461619 75.78173828 85.63427734 C75.07191811 87.74532615 74.36405908 89.8570262 73.65625 91.96875 C73.24181641 93.20044922 72.82738281 94.43214844 72.40039062 95.70117188 C71.28240288 99.08238374 70.23658613 102.48271278 69.19897461 105.8894043 C66.8958989 113.40751302 64.44150461 120.87256993 61.97413826 128.33794594 C61.13313005 130.88255341 60.29374472 133.42769174 59.45469666 135.97294617 C57.9598448 140.50671273 56.46361334 145.04002256 54.96691895 149.57318115 C53.49251252 154.03888739 52.01857188 158.50474723 50.54492188 162.97070312 C50.25527589 163.84845178 49.9656299 164.72620043 49.66720676 165.63054752 C47.32503227 172.73026769 44.98945757 179.83214833 42.65592861 186.93471432 C40.85481324 192.41310307 39.0420371 197.88748939 37.22165203 203.35950375 C36.014985 206.99221769 34.81589229 210.62740399 33.61833 214.26312828 C33.05411391 215.97053353 32.48673498 217.67689758 31.91586494 219.38208961 C27.99912765 231.08816998 25.15304793 242.36750812 24.22924805 254.73168945 C23.97550149 257.24240222 23.54227233 259.67738154 23.0703125 262.15625 C21.77565308 268.96284924 20.93648188 275.81640385 20.0625 282.6875 C18.70432304 293.20128513 17.18780591 303.62449623 15 314 C11.13013042 314.07442057 7.7264085 314.04702186 4 313 C4.5889061 300.90764827 5.78972827 288.92303446 7.15673828 276.89648438 C7.50334889 273.84552214 7.84391576 270.79392864 8.18359375 267.7421875 C8.40329903 265.78381523 8.62333876 263.82548044 8.84375 261.8671875 C8.94482056 260.96402802 9.04589111 260.06086853 9.15002441 259.13034058 C9.54370709 255.67816287 9.95308853 252.26373177 10.56176758 248.84179688 C11.42345145 243.25405297 11.18589813 237.56751344 11.18530273 231.92431641 C11.18740782 229.72145658 11.20533956 227.51917162 11.22460938 225.31640625 C11.27299509 213.13986436 10.50543015 201.02861373 9.70401096 188.88451099 C9.65771518 188.18237823 9.61141939 187.48024546 9.5637207 186.75683594 C9.493314 185.68930478 9.493314 185.68930478 9.42148495 184.60020733 C8.88168233 176.3269111 8.43796853 168.04874302 8 159.76953125 C7.95891428 158.99600563 7.91782856 158.22248001 7.87549782 157.42551422 C7.62363152 152.68118521 7.37390378 147.936746 7.125 143.19226074 C6.87623073 138.45616994 6.62540166 133.72018789 6.37487125 128.98418999 C6.16689171 125.05223399 5.95915027 121.12026588 5.75205994 117.18826294 C5.33058716 109.1933233 4.90376183 101.19871209 4.46704102 93.20458984 C3.50456512 75.57931522 2.59273588 57.95463501 1.82006836 40.31982422 C1.41598479 31.14787403 0.95248553 22.00596857 0.18969727 12.85546875 C-0.09513849 8.56790244 -0.08724615 4.29444937 0 0 Z " fill="#FDFDFE" transform="translate(2251,1109)"/>
<path d="M0 0 C3.3 1.32 6.6 2.64 10 4 C7.73033725 12.09614598 4.79420275 19.77938652 1.625 27.5625 C1.09798377 28.87377884 0.57179883 30.18539204 0.04638672 31.49731445 C-2.46786226 37.76878487 -5.0060703 44.0288211 -7.60272217 50.2666626 C-14.9483461 67.95072545 -20.59985776 85.06449385 -24 104 C-24.26697534 105.42601656 -24.53504247 106.85182959 -24.8046875 108.27734375 C-25.2706408 110.77202629 -25.7288998 113.2681575 -26.1796875 115.765625 C-27.18548508 121.12468081 -28.42151218 126.43260556 -29.625 131.75 C-32.4166226 144.11277227 -34.9767713 156.51748953 -37.5 168.9375 C-40.19153 182.17944375 -42.90909883 195.41224038 -45.76391602 208.62011719 C-47.67980668 217.48611621 -49.5571822 226.35978609 -51.42245483 235.23654175 C-51.93468946 237.67412542 -52.44737056 240.11161474 -52.96020508 242.54907227 C-54.96864629 252.09512773 -54.96864629 252.09512773 -56.97509766 261.64160156 C-63.59973068 293.16660617 -63.59973068 293.16660617 -67 307 C-73.73432123 306.43615943 -79.63458974 304.65441874 -86 302.4375 C-86.96550781 302.10814453 -87.93101562 301.77878906 -88.92578125 301.43945312 C-91.28629806 300.63313798 -93.64416717 299.81987837 -96 299 C-95.95359375 298.2265625 -95.9071875 297.453125 -95.859375 296.65625 C-95.62597121 289.92088361 -95.67527094 284.4310551 -100 279 C-105.38006383 274.10903288 -110.21320261 272.62806597 -117.43359375 272.72265625 C-122.87731688 273.31094292 -126.44354476 276.13142706 -129.9375 280.25 C-130.618125 281.1575 -131.29875 282.065 -132 283 C-137.86094565 282.06072909 -142.54601837 279.3639377 -147.75 276.625 C-149.20599609 275.8825 -149.20599609 275.8825 -150.69140625 275.125 C-151.61308594 274.64289063 -152.53476563 274.16078125 -153.484375 273.6640625 C-154.32709961 273.22529785 -155.16982422 272.7865332 -156.03808594 272.33447266 C-158 271 -158 271 -159 268 C-157.80168248 265.6880628 -156.55189145 263.60508257 -155.125 261.4375 C-154.68518799 260.75204102 -154.24537598 260.06658203 -153.79223633 259.36035156 C-152.20681084 256.89893119 -150.60402675 254.44933762 -149 252 C-147.66780904 249.95453109 -146.33578728 247.90895198 -145.00390625 245.86328125 C-142.08862637 241.39278444 -139.16623184 236.927044 -136.23828125 232.46484375 C-132.60280907 226.92333265 -128.98331274 221.37172406 -125.375 215.8125 C-120.75855823 208.70273225 -116.13232072 201.59943247 -111.5 194.5 C-104.65455642 184.00785284 -97.82438607 173.50585205 -91 163 C-83.53973003 151.51523174 -76.06991481 140.0367934 -68.58642578 128.56713867 C-65.6171212 124.01545206 -62.64928121 119.46283647 -59.6875 114.90625 C-58.89412231 113.68566895 -58.89412231 113.68566895 -58.0847168 112.44042969 C-57.03039366 110.8167948 -55.97716602 109.19244802 -54.92504883 107.56738281 C-52.0249253 103.09252555 -49.09752942 98.63810386 -46.13671875 94.203125 C-45.47929687 93.21183594 -44.821875 92.22054688 -44.14453125 91.19921875 C-42.89535481 89.3167273 -41.63950451 87.43863599 -40.375 85.56640625 C-30.77815605 71.05462236 -24.23976489 54.94285067 -17.4375 39 C-16.61829021 37.08834805 -15.79863046 35.17688885 -14.97851562 33.265625 C-13.77873128 30.46914466 -12.57901195 27.67263771 -11.38021851 24.87573242 C-8.9219357 19.14158091 -6.45903356 13.40953358 -3.97265625 7.6875 C-3.6834581 7.01734863 -3.39425995 6.34719727 -3.09629822 5.65673828 C-1.11606981 1.11606981 -1.11606981 1.11606981 0 0 Z " fill="#FDFDFE" transform="translate(2215,1570)"/>
<path d="M0 0 C1.98 4.95 1.98 4.95 4 10 C-6.60460911 15.50421351 -17.50331559 20.1569765 -28.5 24.8125 C-34.78295522 27.47725753 -41.06196707 30.15076352 -47.33007812 32.85028076 C-49.11296792 33.61802708 -50.89682807 34.38352382 -52.68164062 35.14678955 C-63.42882899 39.76022517 -73.34226732 44.60087511 -83 51.25 C-84.66742547 52.36848032 -86.3348588 53.48694976 -88.0032196 54.60403442 C-89.64667079 55.70702522 -91.28553992 56.81683344 -92.92431641 57.92675781 C-97.30927039 60.88254677 -101.74533215 63.75624944 -106.1875 66.625 C-107.7959019 67.66876406 -109.40397325 68.71303766 -111.01171875 69.7578125 C-111.81786621 70.28149414 -112.62401367 70.80517578 -113.45458984 71.34472656 C-118.13968667 74.39143253 -122.81960358 77.44608021 -127.5 80.5 C-138.80391362 87.87506839 -150.11979858 95.23160324 -161.43847656 102.58398438 C-172.11021723 109.5165654 -182.7749657 116.45972539 -193.43286133 123.41357422 C-199.61797722 127.44845063 -205.80718039 131.47695906 -212 135.5 C-215.33353175 137.6663615 -218.6668095 139.83311349 -222 142 C-222.92844727 142.60344238 -223.85689453 143.20688477 -224.81347656 143.82861328 C-226.76690054 145.09869904 -228.71993994 146.36937649 -230.67260742 147.640625 C-232.62499433 148.91154121 -234.57826833 150.18109582 -236.5324707 151.44921875 C-241.16571427 154.46368466 -245.76856325 157.51024403 -250.31640625 160.65234375 C-251.14124512 161.21816162 -251.96608398 161.78397949 -252.81591797 162.36694336 C-254.35761045 163.42854321 -255.89226553 164.50046219 -257.41845703 165.58422852 C-258.0989209 166.05143311 -258.77938477 166.5186377 -259.48046875 167 C-260.06723389 167.4125 -260.65399902 167.825 -261.25854492 168.25 C-263 169 -263 169 -265.02929688 168.93676758 C-267.88600379 167.57884086 -268.59591165 165.79203483 -270.05078125 163.01171875 C-270.85032227 161.48708008 -270.85032227 161.48708008 -271.66601562 159.93164062 C-272.20935547 158.86107422 -272.75269531 157.79050781 -273.3125 156.6875 C-274.15651367 155.09905273 -274.15651367 155.09905273 -275.01757812 153.47851562 C-279.05169177 145.66211183 -279.05169177 145.66211183 -278.82885742 142.80786133 C-277.66825475 140.27641427 -275.6368808 139.09355929 -273.5 137.3984375 C-269.68071299 133.83774805 -268.78655435 129.1281123 -268.4375 124.125 C-268.64425901 118.2278735 -270.98685539 114.22844207 -275 110 C-280.94183229 105.10128938 -287.63915664 105.5583494 -295 106 C-296.16227404 102.86000372 -297.30167048 99.7121486 -298.4375 96.5625 C-298.92573242 95.24475586 -298.92573242 95.24475586 -299.42382812 93.90039062 C-301.46337279 88.20228129 -302.56374814 83.03993772 -303 77 C-274.29243482 70.56701521 -245.55317929 64.30387029 -216.7244873 58.43618774 C-205.46458214 56.14280959 -194.22276091 53.78141907 -183 51.3125 C-182.01166168 51.09512177 -182.01166168 51.09512177 -181.00335693 50.87335205 C-176.668155 49.91894905 -172.33396088 48.96002028 -168 48 C-156.11271836 45.36747317 -144.23034568 42.81775865 -132.26074219 40.58691406 C-121.23611755 38.51183563 -110.28143462 36.11472207 -99.32421875 33.71289062 C-96.33603832 33.07206462 -93.34390686 32.47220047 -90.34375 31.890625 C-74.5499984 28.73332365 -59.90590321 23.00990614 -45 17 C-43.175896 16.26644287 -43.175896 16.26644287 -41.31494141 15.51806641 C-32.6682843 12.0317918 -24.04420448 8.49148664 -15.42480469 4.93847656 C-13.28507866 4.05846398 -11.14296939 3.18457621 -9 2.3125 C-7.88625 1.85488281 -6.7725 1.39726563 -5.625 0.92578125 C-3 0 -3 0 0 0 Z " fill="#FDFDFE" transform="translate(2176,1525)"/>
<path d="M0 0 C0.02781263 1.77073747 0.04674879 3.54161417 0.0625 5.3125 C0.07410156 6.29863281 0.08570312 7.28476563 0.09765625 8.30078125 C0.02274634 11.13836861 -0.16240341 13.85823769 -0.4453125 16.67578125 C-1.19193014 24.46476576 -1.47483302 32.27566227 -1.81567383 40.09066772 C-2.02555806 44.88756346 -2.24519601 49.68401162 -2.46484375 54.48046875 C-2.50926605 55.45226578 -2.55368835 56.42406281 -2.59945679 57.42530823 C-3.02560907 66.68161642 -3.50008414 75.93491079 -4 85.1875 C-4.03584198 85.86061218 -4.07168396 86.53372437 -4.10861206 87.22723389 C-4.57848549 96.02805931 -5.11359489 104.82381074 -5.67556763 113.61923218 C-6.86973428 132.36981404 -7.90559991 151.12660009 -8.85986328 169.89086914 C-9.0356813 173.3406663 -9.216205 176.7901677 -9.40087891 180.23950195 C-11.90490105 223.53888239 -11.90490105 223.53888239 -8.625 266.6875 C-8.1731031 269.91967299 -7.7316927 273.15326552 -7.2890625 276.38671875 C-7.18031799 277.16828339 -7.07157349 277.94984802 -6.95953369 278.75509644 C-6.13619499 284.74886948 -5.44879324 290.7507074 -4.8359375 296.76953125 C-4.75066803 297.59015549 -4.66539856 298.41077972 -4.57754517 299.25627136 C-4.12479091 303.86329718 -3.91726344 308.37100564 -4 313 C-7.67761331 314.17683626 -11.16669708 314.03578346 -15 314 C-17.69479766 299.63135619 -19.84310884 285.24613201 -21.60449219 270.73803711 C-22.35480856 264.63522802 -23.20307648 258.63996226 -24.51245117 252.63256836 C-25.10153294 249.45176281 -25.39524085 246.27206028 -25.73046875 243.0546875 C-26.94629381 233.62878764 -30.09594447 225.02950829 -33.3125 216.125 C-34.46097076 212.90073392 -35.60116578 209.67359907 -36.73828125 206.4453125 C-37.01834015 205.65364685 -37.29839905 204.8619812 -37.58694458 204.04632568 C-39.66437334 198.11579182 -41.48143241 192.1361285 -43.21101379 186.09634399 C-45.21485511 179.13913941 -47.58192831 172.32349605 -50 165.5 C-52.63226527 158.07207643 -55.13946278 150.65789534 -57.31469727 143.08544922 C-59.84180121 134.40068107 -62.61959143 125.81141742 -65.46484375 117.2265625 C-65.98093716 115.6624223 -66.49676887 114.09819573 -67.01235962 112.53388977 C-68.09524064 109.24987884 -69.1796769 105.96638772 -70.26541138 102.68331909 C-71.95300043 97.57977842 -73.63604109 92.47474536 -75.31811523 87.36938477 C-75.88038069 85.66297726 -76.44265179 83.95657161 -77.00492859 82.25016785 C-77.28176672 81.41000814 -77.55860485 80.56984844 -77.84383202 79.70422935 C-79.21660146 75.53879511 -80.59027654 71.37365959 -81.96386719 67.20849609 C-89.29669013 44.97086211 -89.29669013 44.97086211 -92.67507935 34.64593506 C-93.26314082 32.85115341 -93.85286294 31.05691496 -94.44430542 29.26324463 C-95.23907952 26.85258936 -96.02851348 24.44025514 -96.81640625 22.02734375 C-97.04325104 21.34360184 -97.27009583 20.65985992 -97.5038147 19.95539856 C-98.40867592 17.16586793 -99 14.95651054 -99 12 C-95.69172102 11.14928676 -92.37784131 10.32272051 -89.0625 9.5 C-88.13630859 9.26152344 -87.21011719 9.02304688 -86.25585938 8.77734375 C-80.33480523 7.32304975 -75.09589228 6.74991211 -69 7 C-68.63165039 7.84449707 -68.63165039 7.84449707 -68.25585938 8.70605469 C-65.7043716 14.44548782 -62.73885646 18.13057177 -57 21 C-49.37616875 21.65042476 -43.03663664 22.03053054 -37 17 C-32.75759377 11.98018948 -31.3480527 7.49698364 -31 1 C-20.69339617 -0.32378398 -10.36776236 -0.09139066 0 0 Z " fill="#FDFDFE" transform="translate(2249,1109)"/>
<path d="M0 0 C3.85048246 1.28349415 4.08244728 2.4835683 5.91796875 6.0234375 C6.71557617 7.55484375 6.71557617 7.55484375 7.52929688 9.1171875 C8.07650391 10.19226562 8.62371094 11.26734375 9.1875 12.375 C9.74630859 13.44234375 10.30511719 14.5096875 10.88085938 15.609375 C15 23.59618246 15 23.59618246 15 27 C13.57421875 28.39453125 13.57421875 28.39453125 11.6875 29.8125 C7.66664599 33.14150666 5.40683384 35.9792587 4.6875 41.3203125 C4.39379477 47.32291323 5.30496104 52.16637346 9 57 C14.06364949 61.6263343 18.30981735 63.13645358 25.1875 63.0625 C26.27417969 63.05347656 27.36085938 63.04445313 28.48046875 63.03515625 C29.31191406 63.02355469 30.14335937 63.01195312 31 63 C31.96100105 65.68657212 32.91886249 68.37419711 33.875 71.0625 C34.14441406 71.81466797 34.41382812 72.56683594 34.69140625 73.34179688 C39.13449451 85.85830161 39.13449451 85.85830161 39 92 C34.2907551 93.08716503 29.58084781 94.17140099 24.87036133 95.25317383 C23.27513369 95.6199241 21.68007526 95.98741127 20.08520508 96.35571289 C10.44325995 98.58171156 0.7939393 100.68845026 -8.91842651 102.58938599 C-30.10870706 106.76940951 -51.28042925 111.08944805 -72.35083008 115.83789062 C-80.70127205 117.71888195 -89.06435797 119.53563628 -97.4375 121.3125 C-98.11169983 121.45560608 -98.78589966 121.59871216 -99.48052979 121.74615479 C-110.10138184 123.99653465 -120.73572552 126.17843616 -131.37475586 128.34106445 C-135.17366159 129.1137364 -138.97126406 129.89238925 -142.76782227 130.67651367 C-144.64077395 131.06305521 -146.51373931 131.4495305 -148.38671875 131.8359375 C-149.30056839 132.02458878 -150.21441803 132.21324005 -151.15596008 132.40760803 C-155.9487126 133.39181736 -160.74523007 134.33840145 -165.55670166 135.22647095 C-186.27085909 139.06273815 -204.85323062 145.93949182 -224.23193359 154.02490234 C-231.30101007 156.96685655 -238.42496312 159.77003083 -245.55081177 162.57098389 C-247.71035935 163.42188094 -249.86703165 164.27972487 -252.02319336 165.13916016 C-253.32269149 165.65412888 -254.62224856 166.16894892 -255.921875 166.68359375 C-257.05206055 167.13275146 -258.18224609 167.58190918 -259.34667969 168.04467773 C-262 169 -262 169 -264 169 C-265.32 165.7 -266.64 162.4 -268 159 C-259.83840957 154.8036327 -251.57918248 151.00334643 -243.125 147.4375 C-241.29944801 146.65954349 -239.47390156 145.88157377 -237.64862061 145.10298157 C-233.09347649 143.16099095 -228.53513741 141.22653823 -223.97558594 139.29492188 C-220.62631583 137.87527687 -217.28068256 136.44731603 -213.93695068 135.01467896 C-212.66856963 134.4730141 -211.39895569 133.93422501 -210.12799072 133.39865112 C-199.07892329 128.74131174 -188.90618593 123.11406398 -179 116.375 C-177.71947411 115.51064502 -176.43818257 114.64742358 -175.15625 113.78515625 C-174.4859375 113.33414551 -173.815625 112.88313477 -173.125 112.41845703 C-169.27330393 109.84741451 -165.38581073 107.33156151 -161.5 104.8125 C-159.79165429 103.70444616 -158.08332124 102.59637281 -156.375 101.48828125 C-155.06208984 100.6367749 -155.06208984 100.6367749 -153.72265625 99.76806641 C-148.97688279 96.68620742 -144.23875656 93.59263293 -139.5 90.5 C-128.19616285 83.12481471 -116.88020115 75.76839658 -105.56152344 68.41601562 C-94.88978277 61.4834346 -84.2250343 54.54027461 -73.56713867 47.58642578 C-66.56924147 43.02132937 -59.56530185 38.46562009 -52.55859375 33.9140625 C-46.20106475 29.78317995 -39.84975297 25.6428234 -33.5 21.5 C-30.62459069 19.62455336 -27.74909495 17.74923935 -24.87353516 15.87402344 C-22.93818421 14.61185234 -21.00296544 13.34947853 -19.06787109 12.08691406 C-16.27511231 10.26520207 -13.48142864 8.44491713 -10.6875 6.625 C-9.83929687 6.07134766 -8.99109375 5.51769531 -8.1171875 4.94726562 C-7.33988281 4.44130859 -6.56257813 3.93535156 -5.76171875 3.4140625 C-4.740177 2.74818115 -4.740177 2.74818115 -3.69799805 2.06884766 C-2 1 -2 1 0 0 Z " fill="#FDFDFE" transform="translate(2588,1306)"/>
<path d="M0 0 C2.82752737 2.82752737 3.79877871 4.36293463 5.32495117 7.92016602 C5.75938034 8.92294083 6.19380951 9.92571564 6.6414032 10.95887756 C7.10391983 12.04623703 7.56643646 13.1335965 8.04296875 14.25390625 C8.53025955 15.38336166 9.01755035 16.51281708 9.51960754 17.67649841 C10.81871681 20.6907031 12.11171275 23.70743105 13.40161133 26.72558594 C14.68578914 29.72718702 15.97690995 32.7257946 17.26757812 35.72460938 C17.76910904 36.89017868 18.27063995 38.05574799 18.78736877 39.25663757 C20.74775567 43.81030375 22.70980533 48.36325168 24.67306519 52.91567993 C25.87955741 55.7200439 27.07709515 58.52807079 28.27368164 61.33666992 C31.90742151 69.78989636 35.8240465 77.58151721 41.0625 85.1875 C42.37406377 87.14558833 43.68525062 89.10392917 44.99609375 91.0625 C45.65851074 92.0421875 46.32092773 93.021875 47.00341797 94.03125 C50.26513101 98.88114369 53.44146054 103.78609574 56.625 108.6875 C57.87729782 110.60827268 59.12989859 112.52884789 60.3828125 114.44921875 C64.2900159 120.44296431 68.18880737 126.44215761 72.08642578 132.44213867 C76.21712589 138.79943605 80.35724205 145.15055483 84.5 151.5 C91.87504018 162.80393208 99.2316032 174.11979851 106.58398438 185.43847656 C112.8806543 195.13132086 119.1842298 204.81958803 125.5 214.5 C130.74147828 222.53380546 135.98197224 230.56824825 141.20019531 238.6171875 C144.00390055 242.94021903 146.82318591 247.25206672 149.6640625 251.55078125 C150.26395996 252.46255127 150.86385742 253.37432129 151.48193359 254.3137207 C152.63392585 256.06397903 153.79029227 257.81136861 154.95166016 259.55541992 C155.72582275 260.73454956 155.72582275 260.73454956 156.515625 261.9375 C156.97227539 262.62714844 157.42892578 263.31679687 157.89941406 264.02734375 C159.01214579 266.02176974 159.55944038 267.76849687 160 270 C157.50136876 271.41912551 155.00115719 272.8353384 152.5 274.25 C151.45585937 274.84361328 151.45585937 274.84361328 150.390625 275.44921875 C146.84149823 277.45381813 143.27394495 279.41845647 139.65625 281.296875 C139.02525391 281.62526367 138.39425781 281.95365234 137.74414062 282.29199219 C136 283 136 283 133 283 C131.60546875 281.57421875 131.60546875 281.57421875 130.1875 279.6875 C126.76091361 275.55888128 123.94037371 273.44884209 118.4921875 272.6171875 C112.164755 272.21180882 107.92479081 273.29429203 102.8828125 277.1796875 C98.84958294 281.07903392 97.17648558 284.56509729 96.76953125 290.1796875 C96.75215889 293.13298909 96.82315115 296.05251925 97 299 C93.86000372 300.16227404 90.7121486 301.30167048 87.5625 302.4375 C86.24475586 302.92573242 86.24475586 302.92573242 84.90039062 303.42382812 C79.20228129 305.46337279 74.03993772 306.56374814 68 307 C65.71851767 296.58088024 63.449584 286.15940592 61.25 275.72265625 C61.10142548 275.01794693 60.95285095 274.31323761 60.79977417 273.58717346 C60.49751261 272.15336212 60.19525637 270.71954965 59.89300537 269.28573608 C59.7426886 268.57269318 59.59237183 267.85965027 59.4375 267.125 C59.28637756 266.40784821 59.13525513 265.69069641 58.97955322 264.95181274 C57.34337257 257.19666713 55.68731425 249.45173311 53.8125 241.75 C52.19029514 235.0284592 50.89235939 228.27562973 49.63549805 221.47729492 C48.29033626 214.30116879 46.73586104 207.18324973 45.125 200.0625 C42.9468848 190.4205908 40.91468707 180.76015161 39 171.0625 C35.43210199 153.01024541 31.7379918 134.9810312 27.39794922 117.09667969 C26.08163604 111.57612537 25.03393003 106.0169334 24 100.4375 C23.49269236 97.76182278 22.98103251 95.08706373 22.46484375 92.41308594 C22.06382324 90.3313177 21.67169312 88.24784047 21.28125 86.1640625 C18.59855853 73.79685481 13.47503132 62.25518428 8.68838501 50.58787537 C5.31781339 42.36142271 2.04017844 34.09829609 -1.22836304 25.83087158 C-2.24035118 23.27437497 -3.25731004 20.71989484 -4.2746582 18.16552734 C-4.89689615 16.59482519 -5.5188969 15.02402904 -6.140625 13.453125 C-6.43065903 12.72745331 -6.72069305 12.00178162 -7.01951599 11.25411987 C-9 6.22817496 -9 6.22817496 -9 4 C-6.03 2.68 -3.06 1.36 0 0 Z " fill="#FDFDFE" transform="translate(2284,1570)"/>
<path d="M0 0 C7.74196832 2.18489672 15.10623633 4.92719833 22.55078125 7.96484375 C24.96548554 8.93947605 27.38019938 9.91408469 29.79492188 10.88867188 C32.92879915 12.15790776 36.06172897 13.42947569 39.19433594 14.70184326 C43.47742323 16.44130742 47.7637104 18.1727134 52.05078125 19.90234375 C53.15537186 20.35351059 54.25996246 20.80467743 55.39802551 21.26951599 C65.54399508 25.35943132 75.83491421 28.74670375 86.5546875 30.96484375 C87.29561142 31.1233078 88.03653534 31.28177185 88.7999115 31.44503784 C91.1571551 31.94797693 93.51599973 32.44287334 95.875 32.9375 C97.52315288 33.28742912 99.17118248 33.63793936 100.8190918 33.98901367 C104.06527483 34.68018762 107.31198454 35.36880015 110.55908203 36.05566406 C115.37323174 37.07631462 120.17987405 38.12988724 124.9855957 39.18945312 C131.87050462 40.70688015 138.75155892 42.17245414 145.6875 43.4375 C153.88759979 44.93599539 162.0258865 46.69318261 170.1730957 48.45458984 C177.27249926 49.98851233 184.37517709 51.50425092 191.484375 52.9921875 C192.29537659 53.16197113 193.10637817 53.33175476 193.94195557 53.50668335 C195.5924434 53.85215373 197.24293577 54.19760246 198.89343262 54.54302979 C223.07676712 59.6053634 223.07676712 59.6053634 234.70458984 62.36547852 C239.59598351 63.51237855 244.50790057 64.4780256 249.44921875 65.3828125 C258.49770301 67.04564011 267.46355342 69.04076826 276.4375 71.0625 C278.02272954 71.41757192 279.60801586 71.77239044 281.19335938 72.12695312 C284.17592895 72.79436083 287.1581974 73.46308285 290.14013672 74.13330078 C294.42530783 75.09549923 298.71213821 76.04987678 303 77 C302.35856108 83.44149223 300.45254731 89.30457383 298.4375 95.4375 C297.9434668 96.96407227 297.9434668 96.96407227 297.43945312 98.52148438 C296.63136468 101.01601826 295.81809872 103.50873483 295 106 C294.16082031 105.95866943 293.32164062 105.91733887 292.45703125 105.87475586 C285.71327874 105.59023988 280.5168113 105.88237997 275 110 C269.8708171 115.39913989 268.48006898 119.83994057 268.6171875 127.17578125 C269.407069 133.00317234 272.52485687 136.68876167 276.8125 140.5 C277.534375 140.995 278.25625 141.49 279 142 C278.06072909 147.86094565 275.3639377 152.54601837 272.625 157.75 C272.13 158.72066406 271.635 159.69132812 271.125 160.69140625 C270.40183594 162.07392578 270.40183594 162.07392578 269.6640625 163.484375 C269.22529785 164.32709961 268.7865332 165.16982422 268.33447266 166.03808594 C267 168 267 168 264 169 C261.74750879 167.84520169 259.73209451 166.63674581 257.625 165.25 C256.94727539 164.81534424 256.26955078 164.38068848 255.57128906 163.93286133 C253.03895079 162.30146159 250.51935402 160.65138179 248 159 C246.32955309 157.90974267 244.65910315 156.81948997 242.98858643 155.7293396 C237.36364526 152.05707491 231.74635519 148.37325347 226.1328125 144.68359375 C220.3079644 140.8552366 214.47217251 137.04419985 208.625 133.25 C201.57739278 128.67573412 194.53643367 124.0914377 187.5 119.5 C177.00786996 112.65453025 166.50585199 105.82438603 156 99 C144.51523174 91.53973003 133.0367934 84.06991481 121.56713867 76.58642578 C117.01545206 73.6171212 112.46283647 70.64928121 107.90625 67.6875 C107.0930127 67.15874268 106.27977539 66.62998535 105.44189453 66.08520508 C103.81393961 65.02838531 102.18470542 63.97353357 100.55419922 62.9206543 C96.13917165 60.06507909 91.75998437 57.16689577 87.4140625 54.20703125 C75.35234568 46.04670045 63.39341722 39.45977995 49.97918701 33.83447266 C44.91429277 31.69899191 39.86681217 29.52223707 34.81510925 27.35578918 C30.11210654 25.33945991 25.40714992 23.32814514 20.69604492 21.33081055 C12.33627798 17.779301 4.05129816 14.21935186 -4 10 C-2.68 6.7 -1.36 3.4 0 0 Z " fill="#FDFDFE" transform="translate(2324,1525)"/>
<path d="M0 0 C0.66 0.33 1.32 0.66 2 1 C1.39301257 5.12751449 -0.03810791 8.3321148 -2 12 C-2.99 12 -3.98 12 -5 12 C-5 8.55639368 -4.20408468 7.25204608 -2.5 4.3125 C-2.0359375 3.50425781 -1.571875 2.69601562 -1.09375 1.86328125 C-0.7328125 1.24839844 -0.371875 0.63351562 0 0 Z " fill="#25239B" transform="translate(2444,1160)"/>
<path d="M0 0 C0.66 0.33 1.32 0.66 2 1 C2 1.99 2 2.98 2 4 C-0.97 5.32 -3.94 6.64 -7 8 C-6 4 -6 4 -2.9375 1.75 C-1.968125 1.1725 -0.99875 0.595 0 0 Z " fill="#201D99" transform="translate(1920,1688)"/>
<path d="M0 0 C1.32 0.66 2.64 1.32 4 2 C-0.95 4.475 -0.95 4.475 -6 7 C-6 5.68 -6 4.36 -6 3 C-3.25 1.375 -3.25 1.375 0 0 Z " fill="#25239B" transform="translate(2586,1304)"/>
<path d="M0 0 C0.99 0 1.98 0 3 0 C2.29445932 3.66881155 0.72264494 6.70450534 -1 10 C-2.1875 8.375 -2.1875 8.375 -3 6 C-1.625 2.75 -1.625 2.75 0 0 Z " fill="#26239B" transform="translate(2057,1830)"/>
<path d="M0 0 C0.33 0.66 0.66 1.32 1 2 C-2.07617188 2.29296875 -2.07617188 2.29296875 -5.15234375 2.5859375 C-5.76207031 2.72257812 -6.37179687 2.85921875 -7 3 C-7.33 3.66 -7.66 4.32 -8 5 C-8.33 3.68 -8.66 2.36 -9 1 C-3.375 -1.125 -3.375 -1.125 0 0 Z " fill="#2B289E" transform="translate(1880,1599)"/>
<path d="M0 0 C1.65 0.33 3.3 0.66 5 1 C4.01 1.495 4.01 1.495 3 2 C2.53476937 3.89533342 2.53476937 3.89533342 2.375 6.0625 C2.25125 7.361875 2.1275 8.66125 2 10 C1.01 9.34 0.02 8.68 -1 8 C-0.67 5.36 -0.34 2.72 0 0 Z " fill="#322FA1" transform="translate(2349,1121)"/>
<path d="M0 0 C0.33 0 0.66 0 1 0 C1.04898438 0.63808594 1.09796875 1.27617188 1.1484375 1.93359375 C1.22320313 2.75988281 1.29796875 3.58617187 1.375 4.4375 C1.44460937 5.26121094 1.51421875 6.08492187 1.5859375 6.93359375 C1.72257812 7.61550781 1.85921875 8.29742188 2 9 C2.66 9.33 3.32 9.66 4 10 C2.35 9.67 0.7 9.34 -1 9 C-0.67 6.03 -0.34 3.06 0 0 Z " fill="#3B38A5" transform="translate(2350,1868)"/>
<path d="M0 0 C2.97 0.495 2.97 0.495 6 1 C5.67 1.99 5.34 2.98 5 4 C3 4 1 4 -1 4 C-0.67 2.68 -0.34 1.36 0 0 Z " fill="#423FA8" transform="translate(2623,1398)"/>
<path d="M0 0 C1.89213369 2.38573379 3.02391783 4.07175348 4 7 C3.01 7.33 2.02 7.66 1 8 C0.26919734 6.02253397 -0.39421747 4.01927511 -1 2 C-0.67 1.34 -0.34 0.68 0 0 Z " fill="#2C2A9E" transform="translate(2443,1832)"/>
<path d="M0 0 C1.98 0.66 3.96 1.32 6 2 C5.01 3.485 5.01 3.485 4 5 C2.02 4.01 0.04 3.02 -2 2 C-1.34 1.34 -0.68 0.68 0 0 Z " fill="#2C299E" transform="translate(2584,1692)"/>
<path d="M0 0 C1.98 0.66 3.96 1.32 6 2 C5.01 3.485 5.01 3.485 4 5 C2.02 4.01 0.04 3.02 -2 2 C-1.34 1.34 -0.68 0.68 0 0 Z " fill="#2A279D" transform="translate(1912,1304)"/>
<path d="M0 0 C1.89213369 2.38573379 3.02391783 4.07175348 4 7 C3.01 7.33 2.02 7.66 1 8 C0.26919734 6.02253397 -0.39421747 4.01927511 -1 2 C-0.67 1.34 -0.34 0.68 0 0 Z " fill="#25229B" transform="translate(2055,1160)"/>
</svg>
