<?xml version="1.0" encoding="UTF-8"?>
<svg version="1.1" xmlns="http://www.w3.org/2000/svg" width="800" height="803">
<path d="M0 0 C1.74505325 0.00273422 1.74505325 0.00273422 3.52536011 0.00552368 C21.54711482 0.05297335 39.2177208 0.60072851 57.0625 3.3125 C58.21250488 3.48410645 59.36250977 3.65571289 60.54736328 3.83251953 C119.14757636 12.85103671 176.37864212 34.16523067 225.0625 68.3125 C225.59713867 68.68407227 226.13177734 69.05564453 226.68261719 69.43847656 C251.99158947 87.05536507 276.91305047 107.43606475 297.00390625 130.9140625 C298.64094954 132.82135772 300.29561597 134.707056 301.96484375 136.5859375 C335.17020441 174.13446673 360.00997202 218.311765 377.0625 265.3125 C377.35995117 266.12493164 377.65740234 266.93736328 377.96386719 267.77441406 C388.8485966 297.80261209 394.98368596 329.58686605 398.0625 361.3125 C398.15821289 362.24126953 398.25392578 363.17003906 398.35253906 364.12695312 C399.35581577 375.1234412 399.30619748 386.15444959 399.3125 397.1875 C399.31351212 398.78253357 399.31351212 398.78253357 399.31454468 400.40979004 C399.22337256 491.18995341 367.90285847 580.81772709 309.46875 650.61816406 C307.52218459 652.96350502 305.64344134 655.36168195 303.75 657.75 C292.14867379 671.91988552 278.99460057 685.43204437 265.0625 697.3125 C264.1034375 698.16070313 263.144375 699.00890625 262.15625 699.8828125 C198.48532059 755.92011787 116.45426481 789.71995473 32.0625 796.3125 C30.98887207 796.39927002 30.98887207 796.39927002 29.89355469 796.48779297 C-35.51427196 801.56435621 -106.30380822 790.63763352 -165.296875 761.2421875 C-165.99454483 760.89578217 -166.69221466 760.54937683 -167.411026 760.19247437 C-170.80026963 758.50114179 -174.16734053 756.77837102 -177.51147461 754.99951172 C-178.74052226 754.36907532 -179.96976107 753.7390114 -181.19921875 753.109375 C-182.26100342 752.54573242 -183.32278809 751.98208984 -184.41674805 751.40136719 C-191.98879676 749.05955058 -200.161246 751.6590275 -207.62548828 753.66308594 C-208.54361801 753.90300483 -209.46174774 754.14292372 -210.40769958 754.39011288 C-213.44300637 755.18519398 -216.47535508 755.9910009 -219.5078125 756.796875 C-221.67575847 757.36702569 -223.84388419 757.93649324 -226.01217651 758.50532532 C-231.82730244 760.03282482 -237.63996479 761.56950834 -243.45220947 763.10792923 C-249.48492813 764.70299668 -255.51989342 766.28951539 -261.5546875 767.87670898 C-271.32301196 770.44679387 -281.09013346 773.02139958 -290.85644531 775.59912109 C-303.71089412 778.99145527 -316.56930824 782.36850747 -329.4296875 785.73828125 C-331.3058391 786.2299826 -333.18198863 786.72169187 -335.05813599 787.21340942 C-337.76335653 787.92239165 -340.46858199 788.63135505 -343.1738224 789.34026146 C-351.42810675 791.50333662 -359.68207098 793.66762645 -367.93518448 795.83516502 C-369.36200058 796.20981153 -370.78886535 796.58427272 -372.21578598 796.95852089 C-374.15831138 797.46802267 -376.10064363 797.97826064 -378.04296875 798.48852539 C-379.80519775 798.95030685 -379.80519775 798.95030685 -381.60302734 799.42141724 C-385.6057535 800.49107971 -389.58804643 801.62737628 -393.5637207 802.79344177 C-396.0915872 803.3461932 -398.35794801 803.34808523 -400.9375 803.3125 C-399.57515863 795.92395652 -397.78147401 788.71463388 -395.78320312 781.47460938 C-395.31361364 779.75703572 -395.31361364 779.75703572 -394.83453751 778.0047636 C-393.97836442 774.87582423 -393.11916807 771.74773462 -392.25859737 768.62000251 C-391.3424021 765.28724431 -390.43011445 761.95341663 -389.51739502 758.6197052 C-387.96414637 752.94834445 -386.40853645 747.27763589 -384.85144043 741.60733032 C-382.63874314 733.5490946 -380.43179391 725.48929258 -378.2263236 717.42907631 C-371.60293756 693.2239051 -364.97587909 669.0198221 -358.27194214 644.83681107 C-356.97721094 640.16264493 -355.68748343 635.48709572 -354.39819336 630.81142616 C-353.27727394 626.74934168 -352.14657541 622.69015465 -351.00789261 618.63301563 C-350.17917858 615.67041649 -349.36408344 612.70407114 -348.546875 609.73828125 C-348.25911194 608.72683548 -347.97134888 607.71538971 -347.67486572 606.67329407 C-347.42605652 605.76057236 -347.17724731 604.84785065 -346.92089844 603.9074707 C-346.70447693 603.13216507 -346.48805542 602.35685944 -346.26507568 601.55805969 C-345.60163959 597.01014781 -347.17024671 593.49643793 -349.30859375 589.56640625 C-350.03888794 588.20443115 -350.03888794 588.20443115 -350.78393555 586.81494141 C-351.30898682 585.84476074 -351.83403809 584.87458008 -352.375 583.875 C-396.60283161 500.38267499 -408.61777465 403.40829028 -380.75 280.9375 C-364.79172185 230.18882307 -339.54801308 182.22932853 -304.43481445 142.08105469 C-303.28872258 140.72734695 -302.17289317 139.34796524 -301.07104492 137.95800781 C-295.33843746 130.75025555 -289.13179464 124.22886541 -282.58959961 117.75878906 C-280.8683349 116.05590608 -279.1553334 114.34503071 -277.44335938 112.6328125 C-271.77758928 106.98474922 -266.07057573 101.45738195 -259.9375 96.3125 C-259.30610107 95.77431641 -258.67470215 95.23613281 -258.02416992 94.68164062 C-202.53363553 47.5878371 -134.6193853 15.92305298 -62.6875 4.5625 C-61.43437012 4.36374268 -60.18124023 4.16498535 -58.89013672 3.96020508 C-39.25093721 1.00151643 -19.85388223 -0.06473533 0 0 Z M-220.9375 153.3125 C-221.57075195 153.88258789 -222.20400391 154.45267578 -222.85644531 155.04003906 C-231.70206659 163.04534867 -240.04555199 171.36627362 -247.9375 180.3125 C-248.39044434 180.82071289 -248.84338867 181.32892578 -249.31005859 181.85253906 C-306.78155847 246.61905493 -334.00897364 333.69107579 -329.65625 419.50390625 C-326.56732126 468.32037563 -312.46795835 515.90491735 -288.9375 558.75 C-288.35669678 559.82411133 -288.35669678 559.82411133 -287.76416016 560.91992188 C-285.16619328 565.56724297 -282.22270603 569.59587325 -278.72631836 573.61328125 C-271.83316552 583.43077441 -271.83316552 583.43077441 -272.03694153 589.05908203 C-272.68436235 592.15549313 -273.5400859 595.10941715 -274.49609375 598.125 C-275.18806483 600.52786794 -275.87986867 602.93078404 -276.5715332 605.33374023 C-276.95839714 606.63184488 -277.34616463 607.92968054 -277.73477173 609.2272644 C-279.00060324 613.48516962 -280.17237258 617.76621561 -281.32885742 622.05493164 C-281.53113858 622.80455894 -281.73341974 623.55418623 -281.94183064 624.3265295 C-282.35717267 625.86631905 -282.77238625 627.40614326 -283.1874752 628.94600105 C-284.25330891 632.88563998 -285.33562337 636.82073046 -286.41796875 640.75585938 C-286.74357678 641.94026533 -286.74357678 641.94026533 -287.07576275 643.14859867 C-287.51643711 644.75150589 -287.95716609 646.35439808 -288.39794922 647.95727539 C-289.28874598 651.19811313 -290.17790264 654.43939975 -291.06694412 657.68071938 C-291.72423725 660.07689232 -292.38194201 662.47295196 -293.03973389 664.86898804 C-293.88271143 667.93966082 -294.72440882 671.01068036 -295.56524658 674.0819397 C-297.24355496 680.20511634 -298.92780827 686.32512552 -300.70214844 692.42138672 C-300.94786591 693.27252548 -301.19358337 694.12366425 -301.44674683 695.00059509 C-301.87271324 696.46698869 -302.30650088 697.93115035 -302.75076294 699.3921051 C-303.74165085 702.81112666 -303.95032605 704.92405278 -302.9375 708.3125 C-293.03246979 705.74803155 -283.12765972 703.18271456 -273.22309685 700.61644173 C-268.61920782 699.42359936 -264.0152556 698.23100233 -259.41113281 697.0390625 C-254.95489139 695.88540282 -250.49886951 694.73089805 -246.04294586 693.57601166 C-244.25774834 693.11352691 -242.47246474 692.65137429 -240.68709564 692.18955231 C-230.77744532 689.62619594 -220.87576036 687.03709066 -210.98925781 684.38574219 C-209.22896393 683.91548163 -207.46863937 683.44533588 -205.70828247 682.97531128 C-202.40173146 682.09239123 -199.09792759 681.20003788 -195.79537964 680.30227661 C-194.30655929 679.90409926 -192.81764255 679.50628208 -191.32861328 679.10888672 C-190.66460636 678.92549618 -190.00059944 678.74210564 -189.3164711 678.55315781 C-184.60610785 677.30889279 -180.19188723 676.37952117 -175.58251953 678.28710938 C-174.83599121 678.73892578 -174.08946289 679.19074219 -173.3203125 679.65625 C-172.47460693 680.15664795 -171.62890137 680.6570459 -170.75756836 681.17260742 C-169.8681958 681.71377197 -168.97882324 682.25493652 -168.0625 682.8125 C-166.1724124 683.92630454 -164.28046828 685.03696438 -162.38671875 686.14453125 C-161.45778809 686.68932129 -160.52885742 687.23411133 -159.57177734 687.79541016 C-154.16289599 690.91040448 -148.5952234 693.67190004 -142.95849609 696.34716797 C-141.59712221 696.99743039 -140.24070344 697.6581576 -138.88916016 698.32861328 C-99.7781568 717.70842628 -54.52069072 728.30707032 -10.9375 729.3125 C-10.13103027 729.33296387 -9.32456055 729.35342773 -8.49365234 729.37451172 C68.61609937 731.08116618 144.66328304 706.47037833 205.0625 658.3125 C206.06796875 657.52101563 207.0734375 656.72953125 208.109375 655.9140625 C225.85707278 641.70564549 243.23920921 625.37672272 257.0625 607.3125 C257.88105469 606.31089844 258.69960938 605.30929687 259.54296875 604.27734375 C296.07374261 559.47482043 319.40163355 504.29502824 328.0625 447.3125 C328.22806396 446.23693848 328.22806396 446.23693848 328.39697266 445.13964844 C341.07552482 361.16171083 318.81545051 272.50048016 268.51074219 204.25585938 C264.47752704 198.8437905 260.34363553 193.53082903 256.0625 188.3125 C255.59859863 187.74418457 255.13469727 187.17586914 254.65673828 186.59033203 C247.68335727 178.1163801 240.16997168 170.22124802 232.4375 162.4375 C231.57914551 161.56988037 230.72079102 160.70226074 229.83642578 159.80834961 C223.88651616 153.88734505 217.61955892 148.54583341 211.0625 143.3125 C209.88887135 142.33569106 208.71781203 141.35577597 207.55078125 140.37109375 C191.16559185 126.74951752 173.02993155 115.00258202 154.0625 105.3125 C153.09038574 104.81153809 152.11827148 104.31057617 151.11669922 103.79443359 C119.55381098 87.66680962 86.09831304 76.79041214 51.0625 71.3125 C49.69206543 71.08820313 49.69206543 71.08820313 48.29394531 70.859375 C-48.30348092 55.66059379 -148.84458602 88.28973095 -220.9375 153.3125 Z " fill="#000000" transform="translate(400.9375,-0.3125)"/>
<path d="M0 0 C1.5186496 -0.01150247 3.03725932 -0.03192714 4.55566406 -0.06152344 C21.8843226 -0.39889889 21.8843226 -0.39889889 27.03857422 4.29516602 C32.42022113 10.43548075 35.37803689 18.08834358 38.47607422 25.54516602 C38.97905029 26.7359375 39.48202637 27.92670898 40.00024414 29.15356445 C45.03063349 41.09816938 49.87720738 53.12136322 54.69848633 65.15161133 C57.93766975 73.21827726 61.25791886 81.2311328 64.82759094 89.15826416 C67.44986191 95.0335086 69.5498272 100.77636998 67.39746094 107.2121582 C66.49785383 109.24556556 65.51717191 111.20548723 64.47607422 113.17016602 C64.1103833 113.87633057 63.74469238 114.58249512 63.36791992 115.31005859 C60.44913269 120.80912208 57.13110771 125.5984199 53.03857422 130.29516602 C52.14614178 131.35484438 51.25566798 132.41617403 50.36669922 133.47875977 C42.90865603 142.3657219 42.90865603 142.3657219 40.03466797 145.43579102 C36.3629562 149.36408023 35.29813687 151.94027564 35.03857422 157.29516602 C43.94969062 184.39426999 72.2533482 215.56550926 94.03857422 233.29516602 C95.23549429 234.29219523 96.43207418 235.28963288 97.62841797 236.28735352 C105.81195057 243.07080947 114.07818037 249.55704057 123.03857422 255.29516602 C123.74401367 255.74714355 124.44945312 256.19912109 125.17626953 256.66479492 C138.29832712 264.98061432 151.90898067 271.86627083 166.03857422 278.29516602 C167.31863259 278.89388825 168.59859663 279.49281225 169.87841797 280.09204102 C175.51583207 282.62283474 179.85140019 284.25524474 186.03857422 283.29516602 C199.66372919 276.9174339 210.034932 258.37846284 219.07836914 246.66430664 C229.37832515 233.34095146 229.37832515 233.34095146 233.03857422 232.29516602 C248.32433926 231.50761616 263.2567557 241.09708306 276.60107422 247.73266602 C279.30418792 249.06777187 282.00838712 250.40066113 284.71266174 251.7334137 C286.52515242 252.62690359 288.33719697 253.52129907 290.14878845 254.41661072 C295.87525418 257.24349784 301.62183201 260.02349951 307.39013672 262.76391602 C308.82040056 263.445624 310.25065792 264.1273456 311.6809082 264.80908203 C313.67826304 265.76059832 315.67663387 266.70946399 317.67947388 267.64938354 C330.51456539 273.67608169 330.51456539 273.67608169 335.03857422 278.29516602 C340.34647865 294.2188793 333.91427141 317.67950802 327.03857422 332.29516602 C325.00836097 335.6320037 322.69543888 338.43994997 320.03857422 341.29516602 C319.33087891 342.0930957 318.62318359 342.89102539 317.89404297 343.71313477 C298.42824807 364.53475617 270.2310972 375.39295421 242.21826172 376.51391602 C237.14744651 376.6494378 232.10438688 376.54415681 227.03857422 376.29516602 C226.29961914 376.25891113 225.56066406 376.22265625 224.79931641 376.18530273 C168.90495129 372.48327361 105.47381344 336.60519596 64.03857422 301.29516602 C62.93191259 300.36274473 61.82513491 299.43046115 60.71826172 298.49829102 C49.06525816 288.64166417 37.9777849 278.31568292 27.16357422 267.54516602 C26.36669189 266.75295654 25.56980957 265.96074707 24.7487793 265.14453125 C19.97239882 260.35512383 15.4421424 255.42712399 11.03857422 250.29516602 C10.01701497 249.13855644 8.99362165 247.98356379 7.96826172 246.83032227 C0.48336609 238.34897791 -6.52773465 229.59335912 -13.29345703 220.52954102 C-14.41509193 219.02702308 -15.5401549 217.52705872 -16.66845703 216.02954102 C-47.04741947 175.70712586 -75.40861377 129.8820542 -68.19213867 77.24121094 C-63.6851137 49.41644111 -49.81500701 24.32574324 -27.96142578 6.29516602 C-18.83215328 0.36850121 -10.63774575 0.05606039 0 0 Z " fill="#000000" transform="translate(267.96142578125,213.704833984375)"/>
</svg>
